<svg width="28" height="28" viewBox="0 0 28 28" fill="none" xmlns="http://www.w3.org/2000/svg">
<mask id="mask0_63_2260" style="mask-type:alpha" maskUnits="userSpaceOnUse" x="0" y="0" width="28" height="28">
<rect width="28" height="28" fill="#D9D9D9"/>
</mask>
<g mask="url(#mask0_63_2260)">
<path d="M5.83236 24.5C5.19069 24.5 4.64138 24.2715 4.18444 23.8146C3.7275 23.3576 3.49902 22.8083 3.49902 22.1667V5.83333C3.49902 5.19167 3.7275 4.64236 4.18444 4.18542C4.64138 3.72847 5.19069 3.5 5.83236 3.5H22.1657C22.8074 3.5 23.3567 3.72847 23.8136 4.18542C24.2706 4.64236 24.499 5.19167 24.499 5.83333V8.75H22.1657V5.83333H5.83236V22.1667H22.1657V19.25H24.499V22.1667C24.499 22.8083 24.2706 23.3576 23.8136 23.8146C23.3567 24.2715 22.8074 24.5 22.1657 24.5H5.83236ZM15.1657 19.8333C14.524 19.8333 13.9747 19.6049 13.5178 19.1479C13.0608 18.691 12.8324 18.1417 12.8324 17.5V10.5C12.8324 9.85833 13.0608 9.30903 13.5178 8.85208C13.9747 8.39514 14.524 8.16667 15.1657 8.16667H23.3324C23.974 8.16667 24.5233 8.39514 24.9803 8.85208C25.4372 9.30903 25.6657 9.85833 25.6657 10.5V17.5C25.6657 18.1417 25.4372 18.691 24.9803 19.1479C24.5233 19.6049 23.974 19.8333 23.3324 19.8333H15.1657ZM23.3324 17.5V10.5H15.1657V17.5H23.3324ZM18.6657 15.75C19.1518 15.75 19.565 15.5799 19.9053 15.2396C20.2456 14.8993 20.4157 14.4861 20.4157 14C20.4157 13.5139 20.2456 13.1007 19.9053 12.7604C19.565 12.4201 19.1518 12.25 18.6657 12.25C18.1796 12.25 17.7664 12.4201 17.4261 12.7604C17.0858 13.1007 16.9157 13.5139 16.9157 14C16.9157 14.4861 17.0858 14.8993 17.4261 15.2396C17.7664 15.5799 18.1796 15.75 18.6657 15.75Z" fill="white"/>
</g>
</svg>
