<svg width="195" height="75" viewBox="0 0 195 75" fill="none" xmlns="http://www.w3.org/2000/svg">
<g clip-path="url(#clip0_83_121)">
<mask id="mask0_83_121" style="mask-type:luminance" maskUnits="userSpaceOnUse" x="0" y="0" width="195" height="75">
<path d="M195 0H0V75H195V0Z" fill="white"/>
</mask>
<g mask="url(#mask0_83_121)">
<path d="M52.8457 42.2714C53.2801 40.8302 53.5168 39.3028 53.5168 37.7209C53.5168 37.5452 53.5103 37.3727 53.5038 37.1968C47.269 33.5605 42.5678 25.7697 40.5999 22.0725C39.5364 21.8552 38.4341 21.7433 37.3058 21.7433C36.1775 21.7433 35.1496 21.852 34.1186 22.0532C33.24 23.6893 31.8233 26.134 29.9622 28.668C27.8159 31.5919 24.7389 35.0878 21.1078 37.2098C21.1012 37.3791 21.0947 37.5484 21.0947 37.7209C21.0947 39.306 21.3314 40.8366 21.769 42.2811C24.4633 41.0316 26.9081 39.1814 29.0575 37.0947C27.524 40.6705 25.8153 44.1407 24.0354 46.8921C24.9951 48.2406 26.1623 49.4359 27.4884 50.4329C29.4336 47.6271 31.3985 43.9363 33.3697 39.3764C32.6727 44.0674 31.661 48.1737 30.202 52.0881C31.6482 52.7847 33.2173 53.2737 34.8675 53.5197C35.9116 50.893 36.7351 48.2822 37.3836 44.8853C38.0354 48.2695 38.8621 50.8738 39.9061 53.491C41.5498 53.2289 43.1093 52.7241 44.5457 52.0146C43.1353 48.2406 42.1432 44.2845 41.4428 39.7309C43.3558 44.1152 45.2654 47.6783 47.1523 50.4074C48.4785 49.407 49.6423 48.2055 50.5989 46.8539C48.8318 44.112 47.1362 40.6673 45.6123 37.117C47.7457 39.1909 50.1676 41.0284 52.8425 42.2714H52.8457Z" fill="white"/>
<path d="M37.2245 63.0212C23.2652 63.0212 11.9087 51.5774 11.9087 37.5107C11.9087 23.4441 23.2652 12.0002 37.2245 12.0002C51.1835 12.0002 62.5402 23.4441 62.5402 37.5107C62.5402 51.5774 51.1835 63.0212 37.2245 63.0212ZM37.2245 17.0245C26.0146 17.0245 16.8946 26.2146 16.8946 37.5107C16.8946 48.8069 26.0146 57.997 37.2245 57.997C48.4343 57.997 57.5543 48.8069 57.5543 37.5107C57.5543 26.2146 48.4343 17.0245 37.2245 17.0245Z" fill="white"/>
<path d="M169.586 46.4623C169.586 46.9828 169.647 47.3548 169.77 47.5779C169.918 47.801 170.188 47.9126 170.582 47.9126C170.705 47.9126 170.852 47.9126 171.025 47.9126C171.197 47.9126 171.394 47.8877 171.615 47.8382V50.7759C171.467 50.8254 171.271 50.8751 171.025 50.9246C170.803 50.999 170.569 51.0609 170.323 51.1106C170.077 51.1601 169.831 51.1972 169.586 51.2222C169.34 51.2469 169.13 51.2593 168.958 51.2593C168.097 51.2593 167.384 51.0857 166.818 50.7386C166.252 50.3916 165.883 49.7842 165.711 48.9165C164.874 49.7346 163.841 50.3297 162.611 50.7015C161.405 51.0733 160.237 51.2593 159.105 51.2593C158.244 51.2593 157.42 51.1354 156.633 50.8875C155.845 50.6644 155.144 50.3299 154.529 49.8836C153.939 49.4126 153.459 48.8297 153.09 48.1355C152.746 47.4167 152.573 46.5862 152.573 45.644C152.573 44.4542 152.782 43.4874 153.201 42.7438C153.644 42 154.209 41.4172 154.898 40.9957C155.612 40.5744 156.399 40.277 157.26 40.1034C158.146 39.9052 159.031 39.7564 159.917 39.6574C160.68 39.5085 161.405 39.4091 162.094 39.3596C162.783 39.2852 163.386 39.1736 163.902 39.0249C164.444 38.8762 164.862 38.6533 165.157 38.3557C165.477 38.0334 165.637 37.5622 165.637 36.9425C165.637 36.3971 165.501 35.9509 165.231 35.6038C164.985 35.2567 164.665 34.9963 164.271 34.8229C163.902 34.6245 163.484 34.5005 163.017 34.451C162.549 34.3766 162.106 34.3395 161.688 34.3395C160.507 34.3395 159.536 34.5874 158.773 35.0831C158.01 35.579 157.58 36.3474 157.481 37.3888H153.275C153.348 36.1492 153.644 35.1204 154.16 34.3024C154.677 33.4843 155.329 32.8273 156.116 32.3315C156.928 31.8356 157.838 31.4884 158.847 31.2902C159.855 31.0918 160.889 30.9928 161.947 30.9928C162.881 30.9928 163.804 31.0918 164.714 31.2902C165.625 31.4884 166.436 31.8109 167.15 32.2571C167.888 32.7034 168.478 33.2857 168.921 34.0048C169.364 34.6989 169.586 35.5541 169.586 36.5705V46.4623ZM165.378 41.1073C164.739 41.5288 163.952 41.7892 163.017 41.8884C162.082 41.9629 161.147 42.0866 160.212 42.2602C159.769 42.3345 159.339 42.446 158.921 42.5947C158.502 42.7189 158.133 42.9049 157.813 43.1527C157.494 43.3759 157.235 43.6858 157.039 44.0825C156.866 44.4544 156.78 44.9128 156.78 45.4582C156.78 45.9292 156.916 46.3258 157.186 46.6481C157.457 46.9704 157.777 47.2309 158.146 47.4292C158.539 47.6029 158.957 47.7268 159.4 47.801C159.868 47.8755 160.286 47.9126 160.655 47.9126C161.122 47.9126 161.627 47.8507 162.168 47.7268C162.709 47.6029 163.214 47.3919 163.681 47.0944C164.173 46.797 164.579 46.4252 164.899 45.9789C165.219 45.5079 165.378 44.9375 165.378 44.2682V41.1073Z" fill="white"/>
<path d="M140.633 31.5134H144.581V35.2319H144.655C144.778 34.7114 145.012 34.2031 145.356 33.7073C145.725 33.2116 146.156 32.7653 146.648 32.3686C147.165 31.9471 147.731 31.6126 148.346 31.3645C148.961 31.1166 149.588 30.9927 150.227 30.9927C150.72 30.9927 151.052 31.0051 151.224 31.0298C151.421 31.0547 151.618 31.0795 151.814 31.1042V35.1947C151.519 35.1452 151.212 35.1079 150.892 35.0832C150.597 35.0337 150.301 35.0089 150.006 35.0089C149.293 35.0089 148.616 35.1576 147.977 35.455C147.362 35.7278 146.82 36.1493 146.353 36.7195C145.886 37.2647 145.516 37.9465 145.246 38.7647C144.975 39.5828 144.84 40.5248 144.84 41.5909V50.7387H140.633V31.5134Z" fill="white"/>
<path d="M127.504 51.2593C125.979 51.2593 124.613 51.0114 123.408 50.5155C122.227 49.995 121.218 49.2885 120.382 48.396C119.57 47.5035 118.943 46.4374 118.5 45.1978C118.082 43.9582 117.873 42.5947 117.873 41.1073C117.873 39.6446 118.082 38.2935 118.5 37.0541C118.943 35.8145 119.57 34.7486 120.382 33.8561C121.218 32.9636 122.227 32.2693 123.408 31.7735C124.613 31.2529 125.979 30.9928 127.504 30.9928C129.03 30.9928 130.383 31.2529 131.563 31.7735C132.769 32.2693 133.778 32.9636 134.59 33.8561C135.426 34.7486 136.053 35.8145 136.472 37.0541C136.914 38.2935 137.136 39.6446 137.136 41.1073C137.136 42.5947 136.914 43.9582 136.472 45.1978C136.053 46.4374 135.426 47.5035 134.59 48.396C133.778 49.2885 132.769 49.995 131.563 50.5155C130.383 51.0114 129.03 51.2593 127.504 51.2593ZM127.504 47.9126C128.439 47.9126 129.251 47.7142 129.94 47.3175C130.629 46.9209 131.195 46.4002 131.637 45.7556C132.08 45.1112 132.4 44.3921 132.597 43.5988C132.818 42.7807 132.929 41.9503 132.929 41.1073C132.929 40.2892 132.818 39.4712 132.597 38.6531C132.4 37.8349 132.08 37.1162 131.637 36.4965C131.195 35.8519 130.629 35.3312 129.94 34.9346C129.251 34.5379 128.439 34.3395 127.504 34.3395C126.569 34.3395 125.757 34.5379 125.069 34.9346C124.38 35.3312 123.814 35.8519 123.371 36.4965C122.928 37.1162 122.596 37.8349 122.375 38.6531C122.178 39.4712 122.08 40.2892 122.08 41.1073C122.08 41.9503 122.178 42.7807 122.375 43.5988C122.596 44.3921 122.928 45.1112 123.371 45.7556C123.814 46.4002 124.38 46.9209 125.069 47.3175C125.757 47.7142 126.569 47.9126 127.504 47.9126Z" fill="white"/>
<path d="M109.967 24.1875H114.174V50.7386H109.967V24.1875Z" fill="white"/>
<path d="M101.066 24.1875H105.273V50.7386H101.066V24.1875Z" fill="white"/>
<path d="M83.9805 24.1875H88.8886L99.0368 50.7386H94.0918L91.6194 43.7104H81.102L78.6295 50.7386H73.8691L83.9805 24.1875ZM82.3567 40.1777H90.4015L86.453 28.7614H86.3423L82.3567 40.1777Z" fill="white"/>
</g>
</g>
<defs>
<clipPath id="clip0_83_121">
<rect width="195" height="75" fill="white"/>
</clipPath>
</defs>
</svg>
