<svg width="145" height="44" viewBox="0 0 145 44" fill="none" xmlns="http://www.w3.org/2000/svg">
<g clip-path="url(#clip0_83_111)">
<mask id="mask0_83_111" style="mask-type:luminance" maskUnits="userSpaceOnUse" x="0" y="0" width="145" height="44">
<path d="M145 0H0V44H145V0Z" fill="white"/>
</mask>
<g mask="url(#mask0_83_111)">
<path d="M76.8921 9.97245C77.3456 9.96974 77.7824 10.1469 78.107 10.4651C78.4119 10.7731 78.7019 11.0934 78.9854 11.421L88.6246 22.6181C88.8251 22.8611 89.0423 23.0899 89.2744 23.303C89.7267 23.6972 90.1205 23.5789 90.2828 22.9926C90.3861 22.6132 90.438 22.2215 90.5042 21.8323C91.1457 18.2602 92.8027 14.9495 95.2761 12.297C97.7494 9.64462 100.934 7.76305 104.449 6.87811C111.297 5.10434 118.144 3.32808 124.992 1.54935C126.495 1.1601 127.988 0.736364 129.494 0.354504C130.756 0.0342347 131.201 0.268277 131.663 1.49762C132.47 3.63357 133.25 5.77937 134.047 7.92024C137.54 17.3148 141.032 26.7069 144.523 36.0965C144.668 36.4858 144.793 36.88 144.919 37.2717C145.021 37.5527 145.025 37.86 144.932 38.1441C144.839 38.4282 144.653 38.6727 144.405 38.8385C144.247 38.9624 144.083 39.0775 143.913 39.1834C143.452 39.484 142.99 39.7846 142.523 40.0753C141.293 40.8365 140.863 40.77 139.894 39.6688C139.739 39.4914 139.583 39.3115 139.431 39.1317C136.104 35.2687 132.775 31.4091 129.444 27.5527C129.219 27.278 128.972 27.0211 128.707 26.7841C128.288 26.4293 127.922 26.5377 127.767 27.0625C127.666 27.4632 127.589 27.8696 127.536 28.2795C126.951 31.7936 125.383 35.0693 123.013 37.7264C120.645 40.3834 117.571 42.3126 114.151 43.2899C110.73 44.2671 107.103 44.2523 103.69 43.2472C100.278 42.2421 97.2202 40.2879 94.8727 37.6116C91.9876 34.303 89.1515 30.9599 86.2903 27.6192C85.1428 26.2741 83.9852 24.9323 82.8174 23.5937C82.6271 23.3683 82.4117 23.1658 82.1754 22.9901C81.9295 22.8078 81.6837 22.9482 81.7302 23.2586C81.7851 23.5879 81.8728 23.9107 81.9934 24.2219C82.5418 25.7198 83.1027 27.2127 83.6588 28.7057C84.5294 31.051 85.4 33.3947 86.2706 35.7368C86.3989 36.0866 86.517 36.4463 86.6077 36.8061C86.6668 37.0248 86.6638 37.2555 86.6 37.4729C86.5361 37.6902 86.4138 37.8857 86.2461 38.0378C86.1226 38.1651 85.9854 38.279 85.838 38.3778C85.2305 38.7769 84.6255 39.1834 83.9983 39.5529C83.0633 40.1073 82.5543 39.9446 82.1485 38.9494C81.7619 38.0009 81.4104 37.0352 81.0637 36.0768C78.2496 28.5103 75.4368 20.9445 72.6239 13.3796C72.495 13.0317 72.3846 12.6772 72.2921 12.3178C72.1274 11.6723 72.344 11.2535 72.9437 10.9776C73.0338 10.9362 73.1269 10.9025 73.2218 10.8766C74.3239 10.5924 75.4272 10.3108 76.5329 10.0316C76.6511 10.0042 76.771 9.98445 76.8921 9.97245ZM95.3029 25.1606C95.3006 27.2268 95.76 29.2674 96.6479 31.1325C97.5352 32.9978 98.8289 34.6403 100.433 35.9397C102.037 37.2391 103.91 38.1623 105.917 38.6418C107.924 39.1212 110.012 39.1447 112.029 38.7104C117.824 37.4786 122.277 32.5514 122.852 26.6732C123.182 23.7097 122.541 20.7191 121.027 18.1516C120.887 17.9052 120.747 17.6761 120.631 17.4273C120.363 16.841 120.42 16.3679 120.929 16.0033C121.726 15.4318 122.565 14.912 123.411 14.4143C123.634 14.2801 123.897 14.2261 124.154 14.2615C124.413 14.2969 124.651 14.4195 124.83 14.6089C125.091 14.8498 125.338 15.1064 125.568 15.3776C128.275 18.5063 130.98 21.6376 133.683 24.7713C133.899 25.0177 134.118 25.2788 134.349 25.5104C134.469 25.6406 134.606 25.7533 134.757 25.8454C134.974 25.9686 135.18 25.8602 135.158 25.6163C135.131 25.3242 135.066 25.0368 134.964 24.7615C132.832 18.9999 130.693 13.2408 128.547 7.48416C128.465 7.26302 128.367 7.04814 128.254 6.84116C128.142 6.60736 127.954 6.41864 127.72 6.30587C127.487 6.19309 127.223 6.16296 126.97 6.22034C126.721 6.26398 126.475 6.31985 126.232 6.3879C123.131 7.19099 120.03 7.99577 116.929 8.80223C113.164 9.78765 109.39 10.7312 105.637 11.7585C99.4626 13.4486 95.3053 18.8759 95.3029 25.1606Z" fill="white"/>
<path d="M38.6901 27.1447C36.7419 27.1447 34.7938 27.1447 32.8457 27.1447C32.5316 27.1454 32.2184 27.1784 31.9109 27.2432C31.8122 27.2552 31.717 27.287 31.6309 27.3368C31.5447 27.3866 31.4696 27.4533 31.4098 27.533C31.3501 27.6126 31.3071 27.7035 31.2833 27.8001C31.2595 27.8968 31.2555 27.9974 31.2715 28.0956C31.2871 28.3307 31.3369 28.5623 31.419 28.783C32.0874 30.7234 33.4302 32.3585 35.2021 33.3899C36.604 34.1821 38.2283 34.4871 39.8216 34.2571C43.1914 33.8359 45.597 32.0103 47.1123 29.0047C48.1987 26.8884 48.6731 24.5101 48.4819 22.1381C48.2906 19.7661 47.4414 17.4948 46.0299 15.5805C44.3573 13.3337 42.1706 11.8087 39.4034 11.2742C35.5908 10.5351 32.1864 11.4614 29.2643 14.0432C27.8004 15.3759 26.6747 17.0388 25.9805 18.8941C25.2426 20.7221 24.5809 22.5747 23.8921 24.4174C22.8591 27.1915 21.8284 29.9614 20.8002 32.7272C20.6897 33.0427 20.5548 33.3491 20.3969 33.6436C20.2895 33.8811 20.1026 34.0734 19.8685 34.1873C19.6345 34.3011 19.368 34.3293 19.1153 34.2669C18.2126 34.0723 17.3123 33.858 16.4317 33.5821C15.7627 33.3727 15.5561 32.9342 15.6938 32.2419C15.7458 32.012 15.8149 31.7864 15.9004 31.5668C16.2374 30.6406 16.5843 29.7191 16.9163 28.7929C17.0077 28.555 17.0697 28.3067 17.1008 28.0538C17.1171 27.9655 17.1158 27.875 17.0971 27.7873C17.0783 27.6996 17.0424 27.6165 16.9914 27.5428C16.9404 27.4691 16.8753 27.4061 16.8 27.3577C16.7246 27.3092 16.6404 27.2762 16.5523 27.2605C16.306 27.1934 16.0523 27.1578 15.7971 27.1546C14.459 27.1546 13.1209 27.1546 11.7828 27.1546C11.7041 27.1546 11.6254 27.1546 11.5368 27.1546C11.1509 27.1429 10.7721 27.2603 10.4604 27.4882C10.1485 27.7162 9.92148 28.0418 9.81503 28.4134C9.00572 30.6134 8.17683 32.8036 7.35522 34.9987C6.60504 37.009 5.85972 39.0217 5.10457 41.032C5.00512 41.3095 4.88252 41.5782 4.73807 41.8352C4.62964 42.0585 4.44948 42.2389 4.22647 42.3475C4.00346 42.456 3.75052 42.4864 3.50819 42.4338C2.60546 42.2417 1.70519 42.0298 0.824601 41.7539C0.0866743 41.5223 -0.129784 41.0148 0.086675 40.2757C0.224421 39.8052 0.403983 39.3445 0.578625 38.8837L14.3926 1.72521C14.5009 1.42958 14.6115 1.13395 14.7468 0.848171C15.0838 0.141115 15.4774 -0.0682909 16.2595 0.0203987C16.3764 0.0351926 16.4923 0.0574098 16.6064 0.0869163C17.177 0.229805 17.7502 0.37023 18.3282 0.522974C18.5565 0.585051 18.7788 0.667499 18.9923 0.769332C19.2248 0.857368 19.4155 1.03027 19.5259 1.25329C19.6363 1.47632 19.6583 1.73293 19.5876 1.97157C19.5133 2.27783 19.4171 2.57834 19.2998 2.87079C17.5845 7.48595 15.8717 12.1011 14.1614 16.7162C13.7219 17.8988 13.2833 19.0805 12.8454 20.2614C12.7453 20.5181 12.6631 20.7815 12.5994 21.0497C12.4888 21.5696 12.683 21.8972 13.1898 22.0352C13.418 22.0942 13.6527 22.124 13.8883 22.1238C15.2265 22.1238 16.5646 22.1238 17.9027 22.1238C18.0207 22.1238 18.1487 22.1238 18.2569 22.1091C18.6047 22.111 18.9441 22.0012 19.2251 21.796C19.5062 21.5907 19.7142 21.3007 19.8188 20.9685C20.2911 19.6947 20.7781 18.426 21.2381 17.1474C21.9669 15.0791 23.0859 13.1705 24.5341 11.5255C26.2101 9.61067 28.3089 8.11394 30.6637 7.1542C33.0186 6.19446 35.5645 5.79825 38.0991 5.99701C40.6337 6.19579 43.087 6.98405 45.264 8.29917C47.441 9.61434 49.2816 11.42 50.6395 13.5727C50.8289 13.8708 51.0036 14.1812 51.22 14.4621C51.6062 14.9671 52.0146 14.9351 52.322 14.3783C52.4456 14.151 52.5516 13.9147 52.6393 13.6712C52.9222 12.9149 53.1854 12.1512 53.4781 11.3998C53.9061 10.3059 54.3464 10.067 55.4804 10.3208C56.1125 10.4636 56.7373 10.6435 57.3645 10.8134C57.4783 10.845 57.59 10.8837 57.699 10.9292C58.3656 11.2052 58.5969 11.6412 58.4369 12.3384C58.3694 12.6055 58.2873 12.8687 58.191 13.1267C57.4071 15.2504 56.6217 17.374 55.8346 19.4976C54.6243 22.7644 53.4019 26.0287 52.2064 29.3028C51.3497 31.7759 49.8654 33.9833 47.8994 35.7082C45.9439 37.4163 43.5331 38.5157 40.9629 38.8715C38.9316 39.1712 36.8585 38.9906 34.9094 38.3442C32.3661 37.5164 30.3687 35.9422 28.7994 33.8087C27.0518 31.4473 26.0984 28.591 26.0765 25.6517C26.003 22.5302 26.9525 19.4704 28.7797 16.9405C30.3859 14.6567 32.5776 13.245 35.3473 12.8287C37.7978 12.4453 40.3023 13.0064 42.3563 14.3988C44.4102 15.7913 45.861 17.9117 46.4161 20.3328C46.8196 22.082 46.7679 23.8509 46.5268 25.6197C46.5268 25.6789 46.4998 25.7355 46.4875 25.7947C46.2587 26.7653 45.843 27.125 44.8345 27.1324C42.788 27.1496 40.7415 27.1324 38.6851 27.1324L38.6901 27.1447ZM36.8181 22.1238C37.8414 22.1238 38.8647 22.1238 39.888 22.1238C40.1429 22.1256 40.3975 22.1025 40.648 22.0549C41.2777 21.9219 41.5163 21.5424 41.3466 20.9364C41.2691 20.6514 41.1542 20.378 41.0047 20.1234C40.0946 18.5787 38.7122 17.7633 36.919 17.7387C35.0299 17.714 33.591 18.5467 32.6366 20.185C32.4909 20.442 32.3816 20.7181 32.3119 21.0054C32.2725 21.1131 32.258 21.2284 32.2692 21.3425C32.2804 21.4567 32.3171 21.5668 32.3767 21.6648C32.4362 21.7628 32.5171 21.8461 32.6131 21.9085C32.7093 21.9709 32.8182 22.0108 32.9318 22.0253C33.1994 22.0886 33.4735 22.12 33.7484 22.119C34.7717 22.1313 35.7949 22.1238 36.8181 22.1238Z" fill="white"/>
<path d="M65.4007 6.17578L67.4617 6.25956C67.7803 6.263 68.0894 6.36534 68.3472 6.55249C68.605 6.73958 68.7983 7.0022 68.901 7.30411C69.1957 8.04319 69.4762 8.78227 69.7495 9.50658C73.165 18.6958 76.58 27.8842 79.9944 37.0719C80.3166 37.939 80.646 38.7964 80.9557 39.6759C81.3716 40.8584 81.2164 41.3191 80.174 42.0213C79.6668 42.3587 79.1482 42.679 78.6291 43.0067C78.4805 43.1023 78.3242 43.1847 78.1619 43.2531C77.5884 43.4994 77.1606 43.3565 76.8581 42.8244C76.7083 42.5466 76.5812 42.2575 76.4768 41.9597C74.868 37.6434 73.2611 33.3272 71.6554 29.0109C71.536 28.6754 71.3994 28.3464 71.2448 28.0255C71.1506 27.8065 71.0002 27.6166 70.8086 27.475C70.6171 27.3335 70.3915 27.2455 70.1552 27.2199C69.8837 27.1786 69.6104 27.1531 69.336 27.1435C66.7385 27.1435 64.1416 27.1435 61.5459 27.1435C61.2905 27.1531 61.0364 27.1761 60.7833 27.2125C60.5274 27.2375 60.2827 27.3328 60.0768 27.488C59.8716 27.6431 59.7123 27.8522 59.6176 28.092C59.4946 28.3605 59.3716 28.634 59.2782 28.9099C57.7531 33.0044 56.228 37.099 54.703 41.1935C54.5677 41.563 54.4177 41.9325 54.2578 42.2873C54.1437 42.5639 53.933 42.7895 53.665 42.9219C53.3971 43.0543 53.0902 43.0844 52.8016 43.0067C51.985 42.7948 51.1585 42.615 50.3541 42.3637C49.5498 42.1124 49.2989 41.6246 49.5498 40.7599C49.6433 40.4396 49.7589 40.1243 49.877 39.8114C53.0927 31.1625 56.3092 22.5111 59.5266 13.8573C60.2547 11.9045 60.9844 9.95002 61.716 7.99395C61.824 7.69794 61.9469 7.40772 62.0848 7.12425C62.1928 6.87918 62.3676 6.66942 62.589 6.51874C62.8104 6.36805 63.0693 6.28253 63.3367 6.27186C64.0426 6.2275 64.7509 6.20532 65.4007 6.17578ZM65.4299 22.1227C66.0571 22.1227 66.6872 22.1227 67.3167 22.1227C67.5136 22.1236 67.7105 22.1072 67.9045 22.0734C68.5758 21.9379 68.7804 21.598 68.6151 20.918C68.5943 20.8222 68.568 20.7277 68.5364 20.6347C67.7266 18.4568 66.9157 16.279 66.1042 14.1012C66.0374 13.9165 65.9419 13.7436 65.8214 13.5888C65.7802 13.5283 65.7253 13.4788 65.6608 13.4445C65.597 13.4103 65.5248 13.3924 65.452 13.3924C65.3792 13.3924 65.3076 13.4103 65.2431 13.4445C65.1787 13.4788 65.1238 13.5283 65.0832 13.5888C64.946 13.7813 64.8356 13.9919 64.7562 14.2145C63.9739 16.2971 63.1982 18.3821 62.4291 20.4696C62.3437 20.6892 62.2859 20.9183 62.2566 21.1521C62.2322 21.249 62.228 21.3501 62.2453 21.4486C62.2632 21.5471 62.3014 21.6408 62.3581 21.7232C62.4147 21.8057 62.4881 21.8749 62.5741 21.9265C62.6594 21.9779 62.7555 22.0104 62.8545 22.0217C63.0831 22.0784 63.3176 22.1082 63.5533 22.1104C64.1709 22.1301 64.8004 22.1227 65.4299 22.1227Z" fill="white"/>
<path d="M109.07 37.4935C102.124 37.3901 96.7471 31.8273 96.833 25.0228C96.8635 22.5906 97.6117 20.2219 98.9842 18.2151C100.356 16.2083 102.291 14.6533 104.544 13.7463C106.797 12.8392 109.269 12.6206 111.646 13.118C114.023 13.6154 116.2 14.8066 117.902 16.5413C119.605 18.2762 120.756 20.4768 121.212 22.866C121.667 25.2553 121.406 27.726 120.461 29.9668C119.517 32.2076 117.931 34.1182 115.904 35.4577C113.877 36.7971 111.499 37.5055 109.07 37.4935ZM101.989 25.1091C101.905 29.1863 105.305 32.2535 108.965 32.3348C109.913 32.3697 110.86 32.2152 111.749 31.8802C112.637 31.5453 113.451 31.0365 114.141 30.3836C114.832 29.7307 115.386 28.9468 115.771 28.0774C116.156 27.2079 116.364 26.2705 116.384 25.3196C116.404 24.3687 116.234 23.4234 115.886 22.5387C115.537 21.654 115.017 20.8477 114.354 20.1666C113.691 19.4855 112.899 18.9433 112.025 18.5716C111.151 18.1999 110.212 18.0061 109.262 18.0015C105.378 17.9325 101.964 21.0958 101.989 25.1091Z" fill="white"/>
<path d="M109.198 30.7398C112.163 30.7398 114.568 28.3111 114.568 25.3152C114.568 22.3192 112.163 19.8905 109.198 19.8905C106.232 19.8905 103.827 22.3192 103.827 25.3152C103.827 28.3111 106.232 30.7398 109.198 30.7398Z" fill="#E25D0E"/>
</g>
</g>
<defs>
<clipPath id="clip0_83_111">
<rect width="145" height="44" fill="white"/>
</clipPath>
</defs>
</svg>
