<svg width="592" height="198" viewBox="0 0 592 198" fill="none" xmlns="http://www.w3.org/2000/svg">
<rect x="0.791016" y="28.8303" width="115" height="144" rx="11" transform="rotate(-13.0669 0.791016 28.8303)" fill="#EE1C25"/>
<path fill-rule="evenodd" clip-rule="evenodd" d="M13.8805 39.6835C13.2653 40.5531 13.0102 41.6717 13.27 42.7909C13.7526 44.8704 15.8296 46.1648 17.909 45.6822C18.8018 45.475 19.5499 44.9738 20.0748 44.3048C20.1595 45.1128 20.1954 46.159 19.9036 46.2112C19.5443 46.2754 19.5514 46.485 19.5998 46.5818L22.1362 45.9931C22.1494 45.906 22.0785 45.7448 21.6896 45.7966C21.3436 45.8428 20.8727 44.7052 20.6148 43.941C21.3951 44.3188 22.3049 44.4422 23.2152 44.231C24.7617 43.872 25.8815 42.6462 26.18 41.1862L16.4698 35.495L13.8653 39.674L13.8805 39.6835ZM17.1067 34.4731L26.214 39.811C26.1988 39.7113 26.1796 39.6115 26.1565 39.5117C25.9305 38.5382 25.3611 37.7338 24.6059 37.1969L24.6174 37.1785L17.9936 33.0502L17.1067 34.4731Z" fill="white"/>
<path fill-rule="evenodd" clip-rule="evenodd" d="M54.3221 86.1028C52.3321 88.9155 51.507 92.5335 52.3473 96.1537C53.9084 102.88 60.6263 107.067 67.3521 105.505C70.2399 104.835 72.6595 103.214 74.3572 101.05C74.6312 103.664 74.7472 107.048 73.8035 107.216C72.6413 107.424 72.6642 108.102 72.8209 108.415L81.0248 106.511C81.0674 106.229 80.8383 105.708 79.5804 105.876C78.4611 106.025 76.9381 102.345 76.104 99.8733C78.6279 101.095 81.5707 101.495 84.515 100.811C89.5173 99.6504 93.139 95.6854 94.1046 90.9632L62.6972 72.555L54.2727 86.0721L54.3221 86.1028ZM64.7572 69.2496L94.2146 86.5149C94.1654 86.1926 94.1035 85.8698 94.0285 85.547C93.2977 82.3981 91.4558 79.7963 89.0133 78.0597L89.0504 78.0002L67.6256 64.6472L64.7572 69.2496Z" fill="white"/>
<rect x="30.3008" y="23.4666" width="115" height="144" rx="11" transform="rotate(-2.0647 30.3008 23.4666)" fill="white"/>
<path fill-rule="evenodd" clip-rule="evenodd" d="M42.0116 30.918L37.7398 35.5093L44.2657 41.5811L48.5376 36.9898L42.0116 30.918ZM49.3222 36.1465L50.3375 35.0552L43.8116 28.9834L42.7962 30.0747L49.3222 36.1465Z" fill="#EE1C25"/>
<path fill-rule="evenodd" clip-rule="evenodd" d="M81.818 76.0559L64.8743 94.2669L90.7588 118.35L107.702 100.139L81.818 76.0559ZM110.814 96.7942L114.842 92.4655L88.9574 68.3824L84.93 72.7111L110.814 96.7942Z" fill="#EE1C25"/>
<rect x="55.4727" y="23.145" width="115" height="144" rx="11" transform="rotate(4.33477 55.4727 23.145)" fill="#EE1C25"/>
<path fill-rule="evenodd" clip-rule="evenodd" d="M67.0859 37.6362L67.0951 37.6369C67.0934 37.6386 67.0917 37.6403 67.09 37.6421C67.0886 37.6401 67.0873 37.6382 67.0859 37.6362ZM64.6178 36.3174C64.2662 35.8263 64.0809 35.2372 64.1278 34.6181C64.2441 33.0838 65.743 31.9465 67.4757 32.0779C69.2084 32.2092 70.5187 33.5595 70.4024 35.0938C70.3555 35.7128 70.0835 36.2673 69.6618 36.6998L69.7024 36.7027C71.4351 36.834 72.7454 38.1843 72.6291 39.7186C72.5128 41.2529 71.0139 42.3902 69.2812 42.2589C68.3004 42.1845 67.4549 41.7195 66.9269 41.0517C66.967 41.8931 67.135 42.8587 67.6023 43.119L65.878 42.9883C66.0779 42.879 66.4926 42.3318 66.7803 40.9965C66.1568 41.6023 65.2316 41.9519 64.228 41.8758C62.4953 41.7445 61.1849 40.3942 61.3012 38.8599C61.4168 37.3349 62.8984 36.202 64.6178 36.3174Z" fill="white"/>
<path fill-rule="evenodd" clip-rule="evenodd" d="M106.346 99.2793C106.358 99.2801 106.37 99.2809 106.383 99.2817C106.376 99.2886 106.369 99.2954 106.362 99.3023C106.357 99.2946 106.351 99.287 106.346 99.2793ZM96.5695 94.0551C95.1768 92.1096 94.4427 89.7762 94.6286 87.3241C95.0893 81.2465 101.027 76.7414 107.89 77.2617C114.754 77.7819 119.944 83.1305 119.483 89.2081C119.297 91.6603 118.22 93.8566 116.55 95.57C116.603 95.5734 116.657 95.5772 116.71 95.5813C123.574 96.1015 128.764 101.45 128.304 107.528C127.843 113.605 121.905 118.11 115.042 117.59C111.157 117.295 107.808 115.454 105.716 112.808C105.875 116.141 106.541 119.966 108.392 120.997L101.561 120.479C102.353 120.047 103.996 117.879 105.135 112.59C102.666 114.989 99.0009 116.374 95.0254 116.073C88.162 115.552 82.9715 110.204 83.4322 104.126C83.8901 98.0855 89.7588 93.5982 96.5695 94.0551Z" fill="white"/>
<rect x="80.627" y="26.7498" width="115" height="144" rx="11" transform="rotate(11.9473 80.627 26.7498)" fill="white"/>
<path fill-rule="evenodd" clip-rule="evenodd" d="M91.9607 39.5723C91.8897 39.5526 91.8176 39.535 91.7445 39.5195C89.8422 39.117 87.9739 40.3328 87.5714 42.235C87.3861 43.1104 87.5436 43.9787 87.9531 44.7002L87.9368 44.7108L91.7482 50.568L97.1316 47.065L91.9607 39.5723ZM98.0216 46.4573C98.6376 45.9736 99.0936 45.2791 99.2684 44.453C99.6641 42.5831 98.469 40.7466 96.5991 40.3509C95.7068 40.1621 94.822 40.3355 94.0979 40.7717L98.0216 46.4573Z" fill="#EE1C25"/>
<path fill-rule="evenodd" clip-rule="evenodd" d="M117.022 87.347C116.753 87.2725 116.481 87.2058 116.205 87.1474C109.013 85.6256 101.949 90.222 100.428 97.4136C99.7275 100.723 100.323 104.006 101.871 106.733L101.809 106.774L116.219 128.918L136.571 115.674L117.022 87.347ZM139.936 113.376C142.265 111.548 143.989 108.922 144.65 105.799C146.146 98.7298 141.627 91.7864 134.558 90.2905C131.185 89.5767 127.84 90.2325 125.102 91.8815L139.936 113.376Z" fill="#EE1C25"/>
<path d="M306.15 82.7257H295.488V93.2812H232.472V82.9368H295.805V61.6146H243.027V51.059H232.472V30.159H243.027V19.709H306.044V29.9479H242.816V51.3757H295.594V61.9312H306.15V82.7257ZM390.573 82.7257H379.912V93.2812H327.451V82.6201H316.896V30.2646H327.451V19.709H380.018V30.2646H390.573V82.7257ZM379.912 82.7257V30.2646H327.451V82.7257H379.912ZM474.997 82.7257H464.336V93.2812H443.542V82.6201H432.986V29.9479H411.664V93.2812H401.319V30.2646H411.875V19.709H432.775V30.2646H443.331V82.9368H464.653V19.709H474.997V82.7257ZM496.088 93.2812H485.743V19.709H496.088V93.2812ZM580.468 82.7257H569.912V93.2812H517.451V82.6201H506.896V30.2646H517.451V19.709H570.018V30.2646H580.468V40.5034H570.229V29.9479H517.24V82.9368H570.229V72.3812H580.468V82.7257Z" fill="white"/>
<path d="M294.5 177.298H285.788V150.631H250.233V141.92H285.788V123.965H241.166V177.298H232.455V124.231H241.344V115.342H285.611V124.231H294.5V177.298ZM365.593 141.742H356.616V150.631H330.038V168.587H365.504V177.298H330.216V168.32H321.327V150.809H330.304V141.92H356.882V123.965H312.26V177.298H303.549V124.231H312.438V115.342H356.704V124.231H365.593V141.742ZM436.598 123.965H383.354V142.009H427.709V150.631H383.354V168.587H436.598V177.298H383.531V168.32H374.643V124.231H383.531V115.342H436.598V123.965ZM507.781 168.409H498.803V177.298H481.292V168.32H472.403V123.965H454.447V177.298H445.736V124.231H454.625V115.342H472.225V124.231H481.114V168.587H499.07V115.342H507.781V168.409ZM578.875 177.298H570.163V150.631H534.608V141.92H570.163V123.965H525.541V177.298H516.83V124.231H525.719V115.342H569.986V124.231H578.875V177.298Z" fill="#EE1C25"/>
</svg>
