<svg width="199" height="198" viewBox="0 0 199 198" fill="none" xmlns="http://www.w3.org/2000/svg">
<rect x="0.791016" y="28.8302" width="115" height="144" rx="11" transform="rotate(-13.0669 0.791016 28.8302)" fill="#EE1C25"/>
<path fill-rule="evenodd" clip-rule="evenodd" d="M13.8805 39.6834C13.2653 40.553 13.0102 41.6716 13.27 42.7908C13.7526 44.8702 15.8296 46.1647 17.909 45.6821C18.8018 45.4748 19.5499 44.9737 20.0748 44.3047C20.1595 45.1127 20.1954 46.1589 19.9036 46.211C19.5443 46.2752 19.5514 46.4849 19.5998 46.5817L22.1362 45.993C22.1494 45.9059 22.0785 45.7447 21.6896 45.7965C21.3436 45.8426 20.8727 44.7051 20.6148 43.9408C21.3951 44.3186 22.3049 44.4421 23.2152 44.2308C24.7617 43.8719 25.8815 42.6461 26.18 41.1861L16.4698 35.4949L13.8653 39.6739L13.8805 39.6834ZM17.1067 34.473L26.214 39.8108C26.1988 39.7112 26.1796 39.6114 26.1565 39.5116C25.9305 38.5381 25.3611 37.7337 24.6059 37.1968L24.6174 37.1783L17.9936 33.0501L17.1067 34.473Z" fill="white"/>
<path fill-rule="evenodd" clip-rule="evenodd" d="M54.3221 86.1027C52.3321 88.9154 51.507 92.5333 52.3473 96.1536C53.9084 102.879 60.6263 107.066 67.3521 105.505C70.2399 104.835 72.6595 103.214 74.3572 101.05C74.6312 103.664 74.7472 107.048 73.8035 107.216C72.6413 107.424 72.6642 108.102 72.8209 108.415L81.0248 106.511C81.0674 106.229 80.8383 105.708 79.5804 105.875C78.4611 106.025 76.9381 102.345 76.104 99.8732C78.6279 101.095 81.5707 101.495 84.515 100.811C89.5173 99.6503 93.139 95.6853 94.1046 90.9631L62.6972 72.5548L54.2727 86.0719L54.3221 86.1027ZM64.7572 69.2495L94.2146 86.5148C94.1654 86.1925 94.1035 85.8697 94.0285 85.5469C93.2977 82.398 91.4558 79.7962 89.0133 78.0596L89.0504 78.0001L67.6256 64.6471L64.7572 69.2495Z" fill="white"/>
<rect x="30.3008" y="23.4666" width="115" height="144" rx="11" transform="rotate(-2.0647 30.3008 23.4666)" fill="white"/>
<path fill-rule="evenodd" clip-rule="evenodd" d="M42.0116 30.918L37.7398 35.5093L44.2657 41.5811L48.5376 36.9898L42.0116 30.918ZM49.3222 36.1465L50.3375 35.0552L43.8116 28.9834L42.7962 30.0747L49.3222 36.1465Z" fill="#EE1C25"/>
<path fill-rule="evenodd" clip-rule="evenodd" d="M81.818 76.0558L64.8743 94.2668L90.7588 118.35L107.702 100.139L81.818 76.0558ZM110.814 96.7941L114.842 92.4654L88.9574 68.3824L84.93 72.711L110.814 96.7941Z" fill="#EE1C25"/>
<rect x="55.4727" y="23.1449" width="115" height="144" rx="11" transform="rotate(4.33477 55.4727 23.1449)" fill="#EE1C25"/>
<path fill-rule="evenodd" clip-rule="evenodd" d="M67.0859 37.6361L67.0951 37.6367C67.0934 37.6385 67.0917 37.6402 67.09 37.642C67.0886 37.64 67.0873 37.638 67.0859 37.6361ZM64.6178 36.3173C64.2662 35.8261 64.0809 35.237 64.1278 34.618C64.2441 33.0837 65.743 31.9464 67.4757 32.0777C69.2084 32.2091 70.5187 33.5593 70.4024 35.0936C70.3555 35.7127 70.0835 36.2672 69.6618 36.6997L69.7024 36.7026C71.4351 36.8339 72.7454 38.1842 72.6291 39.7185C72.5128 41.2527 71.0139 42.3901 69.2812 42.2587C68.3004 42.1844 67.4549 41.7194 66.9269 41.0516C66.967 41.893 67.135 42.8586 67.6023 43.1189L65.878 42.9882C66.0779 42.8789 66.4926 42.3317 66.7803 40.9964C66.1568 41.6022 65.2316 41.9518 64.228 41.8757C62.4953 41.7444 61.1849 40.3941 61.3012 38.8598C61.4168 37.3348 62.8984 36.2019 64.6178 36.3173Z" fill="white"/>
<path fill-rule="evenodd" clip-rule="evenodd" d="M106.346 99.2792C106.358 99.2801 106.37 99.2809 106.383 99.2816C106.376 99.2885 106.369 99.2954 106.362 99.3023C106.357 99.2946 106.351 99.2869 106.346 99.2792ZM96.5695 94.0551C95.1768 92.1095 94.4427 89.7761 94.6286 87.324C95.0893 81.2465 101.027 76.7414 107.89 77.2616C114.754 77.7819 119.944 83.1305 119.483 89.208C119.297 91.6603 118.22 93.8565 116.55 95.5699C116.603 95.5734 116.657 95.5771 116.71 95.5812C123.574 96.1015 128.764 101.45 128.304 107.528C127.843 113.605 121.905 118.11 115.042 117.59C111.157 117.295 107.808 115.454 105.716 112.808C105.875 116.141 106.541 119.966 108.392 120.997L101.561 120.479C102.353 120.046 103.996 117.879 105.135 112.59C102.666 114.989 99.0009 116.374 95.0254 116.073C88.162 115.552 82.9715 110.204 83.4322 104.126C83.8901 98.0854 89.7588 93.5981 96.5695 94.0551Z" fill="white"/>
<rect x="80.627" y="26.7498" width="115" height="144" rx="11" transform="rotate(11.9473 80.627 26.7498)" fill="white"/>
<path fill-rule="evenodd" clip-rule="evenodd" d="M91.9607 39.5723C91.8897 39.5526 91.8176 39.535 91.7445 39.5195C89.8422 39.117 87.9739 40.3328 87.5714 42.235C87.3861 43.1104 87.5436 43.9787 87.9531 44.7002L87.9368 44.7108L91.7482 50.568L97.1316 47.065L91.9607 39.5723ZM98.0216 46.4573C98.6376 45.9736 99.0936 45.2791 99.2684 44.453C99.6641 42.5831 98.469 40.7466 96.5991 40.3509C95.7068 40.1621 94.822 40.3355 94.0979 40.7717L98.0216 46.4573Z" fill="#EE1C25"/>
<path fill-rule="evenodd" clip-rule="evenodd" d="M117.022 87.3471C116.753 87.2726 116.481 87.2059 116.205 87.1474C109.013 85.6257 101.949 90.222 100.428 97.4136C99.7275 100.723 100.323 104.006 101.871 106.733L101.809 106.774L116.219 128.918L136.571 115.674L117.022 87.3471ZM139.936 113.376C142.265 111.548 143.989 108.922 144.65 105.799C146.146 98.7298 141.627 91.7864 134.558 90.2906C131.185 89.5768 127.84 90.2325 125.102 91.8815L139.936 113.376Z" fill="#EE1C25"/>
</svg>
