<svg width="28" height="28" viewBox="0 0 28 28" fill="none" xmlns="http://www.w3.org/2000/svg">
<mask id="mask0_63_2263" style="mask-type:alpha" maskUnits="userSpaceOnUse" x="0" y="0" width="28" height="28">
<rect width="28" height="28" fill="#D9D9D9"/>
</mask>
<g mask="url(#mask0_63_2263)">
<path d="M13.9997 20.9999C15.5552 20.9999 17.033 20.7083 18.433 20.1249C19.833 19.5416 21.0775 18.7055 22.1663 17.6166L20.9413 16.3916C20.7275 16.6055 20.5184 16.7951 20.3143 16.9603C20.1101 17.1256 19.8913 17.286 19.658 17.4416L18.6663 15.7499V12.8333H19.833V11.6666H13.2997L11.258 8.16659H6.99967L8.16634 9.04159L6.41634 11.0833L7.52468 12.2499L9.33301 11.0833V15.7499L8.34134 17.4416C8.10801 17.286 7.88926 17.1256 7.68509 16.9603C7.48093 16.7951 7.2719 16.6055 7.05801 16.3916L5.83301 17.6166C6.9219 18.7055 8.16634 19.5416 9.56634 20.1249C10.9663 20.7083 12.4441 20.9999 13.9997 20.9999ZM13.9997 19.2499C13.2608 19.2499 12.5462 19.177 11.8559 19.0312C11.1656 18.8853 10.4997 18.6471 9.85801 18.3166L10.8497 16.6249C11.3552 16.8194 11.8754 16.9603 12.4101 17.0478C12.9448 17.1353 13.4747 17.1791 13.9997 17.1791C14.5441 17.1791 15.0788 17.1353 15.6038 17.0478C16.1288 16.9603 16.6441 16.8194 17.1497 16.6249L18.1413 18.3166C17.4997 18.6083 16.8337 18.8367 16.1434 19.002C15.4531 19.1673 14.7386 19.2499 13.9997 19.2499ZM4.66634 25.6666C4.02467 25.6666 3.47537 25.4381 3.01842 24.9812C2.56148 24.5242 2.33301 23.9749 2.33301 23.3333V4.66659C2.33301 4.02492 2.56148 3.47561 3.01842 3.01867C3.47537 2.56172 4.02467 2.33325 4.66634 2.33325H23.333C23.9747 2.33325 24.524 2.56172 24.9809 3.01867C25.4379 3.47561 25.6663 4.02492 25.6663 4.66659V23.3333C25.6663 23.9749 25.4379 24.5242 24.9809 24.9812C24.524 25.4381 23.9747 25.6666 23.333 25.6666H4.66634ZM4.66634 23.3333H23.333V4.66659H4.66634V23.3333Z" fill="white"/>
</g>
</svg>
