<svg width="35" height="35" viewBox="0 0 35 35" fill="none" xmlns="http://www.w3.org/2000/svg">
<path d="M34.4764 21.7358C32.1389 31.1119 22.6424 36.8181 13.2651 34.48C3.89176 32.1425 -1.81438 22.6453 0.524158 13.27C2.86065 3.89277 12.3572 -1.8138 21.7315 0.523719C31.1081 2.86123 36.8139 12.3594 34.4761 21.736L34.4763 21.7358H34.4764Z" fill="#F7931A"/>
<path d="M25.2176 15.0081C25.566 12.679 23.7927 11.427 21.3679 10.5918L22.1546 7.43677L20.234 6.95821L19.4683 10.0302C18.9634 9.90423 18.4448 9.78557 17.9295 9.66794L18.7008 6.57572L16.7814 6.09717L15.9944 9.25115C15.5766 9.15602 15.1662 9.06201 14.7681 8.96294L14.7703 8.95302L12.1218 8.29165L11.6109 10.3429C11.6109 10.3429 13.0358 10.6695 13.0058 10.6896C13.7835 10.8838 13.9241 11.3986 13.9008 11.8066L13.0048 15.4009C13.0583 15.4145 13.1278 15.4342 13.2044 15.465C13.1404 15.4491 13.0722 15.4317 13.0014 15.4148L11.7455 20.4499C11.6504 20.6862 11.4092 21.0408 10.8655 20.9061C10.8847 20.934 9.46957 20.5578 9.46957 20.5578L8.51605 22.7562L11.0153 23.3792C11.4803 23.4958 11.9359 23.6178 12.3846 23.7326L11.5899 26.9238L13.5082 27.4023L14.2953 24.245C14.8193 24.3873 15.3279 24.5185 15.8258 24.6422L15.0414 27.7846L16.962 28.2632L17.7567 25.078C21.0316 25.6978 23.4941 25.4479 24.5306 22.4857C25.3659 20.1008 24.4891 18.7252 22.7661 17.8281C24.021 17.5387 24.9663 16.7133 25.2183 15.0084L25.2177 15.0079L25.2176 15.0081ZM20.8296 21.1612C20.2361 23.5461 16.2206 22.2569 14.9187 21.9337L15.9734 17.7059C17.2751 18.0309 21.4499 18.674 20.8297 21.1612H20.8296ZM21.4235 14.9735C20.8821 17.1429 17.54 16.0408 16.4559 15.7705L17.412 11.9362C18.4962 12.2064 21.9876 12.7108 21.4237 14.9735H21.4235Z" fill="black"/>
</svg>
