<svg width="144" height="140" viewBox="0 0 144 140" fill="none" xmlns="http://www.w3.org/2000/svg">
<path fill-rule="evenodd" clip-rule="evenodd" d="M71.8481 70.5359C71.8869 70.5356 71.9257 70.5352 71.9645 70.5347C71.9449 70.5581 71.9253 70.5816 71.9058 70.605C71.8866 70.5819 71.8674 70.5589 71.8481 70.5359ZM39.4314 56.2495C34.5234 50.3862 31.6206 43.1277 31.6206 35.2688C31.6206 15.7904 49.4528 0 71.45 0C93.4472 0 111.279 15.7904 111.279 35.2688C111.279 43.1282 108.376 50.3871 103.468 56.2506C103.639 56.2487 103.81 56.2477 103.982 56.2477C125.979 56.2477 143.812 72.0381 143.812 91.5166C143.812 110.995 125.979 126.785 103.982 126.785C91.5289 126.785 80.4104 121.724 73.1068 113.799C74.4181 124.382 77.4627 136.412 83.6115 139.251H61.7205C64.1393 137.68 68.8499 130.376 71.2037 113.246C63.9129 121.489 52.5697 126.785 39.8294 126.785C17.8322 126.785 0 110.995 0 91.5166C0 72.1558 17.6175 56.4386 39.4314 56.2495Z" fill="#0F0F0F"/>
</svg>
