<svg width="219" height="36" viewBox="0 0 219 36" fill="none" xmlns="http://www.w3.org/2000/svg">
<g clip-path="url(#clip0_83_145)">
<path d="M218.841 20.4969H204.556C205.118 23.2546 207.099 24.7826 210.016 24.7826C212.148 24.7826 213.419 24.3727 215.475 22.9565L217.645 26.0869C215.251 28.0621 213.045 28.8447 209.867 28.8447C203.958 28.8447 199.77 24.4099 199.77 18.7081C199.77 13.0062 204.145 8.57141 209.679 8.57141C215.7 8.57141 218.841 13.2298 218.841 18.7826V20.4969ZM204.519 17.1428H214.242C214.018 14.795 212.634 12.559 209.717 12.559C207.062 12.559 205.042 14.1987 204.519 17.1428Z" fill="white"/>
<path d="M179.267 34.5093L180.464 30.5963C182.221 31.4161 184.203 31.9379 186.223 31.9379C190.935 31.9379 192.168 30 192.168 26.7205V25.2298C191.121 26.5714 188.952 28.2857 185.699 28.2857C180.464 28.2857 176.762 24.1118 176.762 18.4845C176.762 12.8199 180.464 8.57141 185.699 8.57141C189.214 8.57141 191.607 10.1366 192.991 11.8882L193.814 8.98136H196.843V25.8633C196.843 33.0186 193.029 36 186.596 36C182.894 36 180.427 35.1055 179.267 34.5093ZM186.858 24.0372C189.999 24.0372 192.168 21.7639 192.168 18.4845C192.168 15.205 189.999 12.8199 186.858 12.8199C183.642 12.8199 181.474 15.0931 181.474 18.4845C181.474 21.8385 183.642 24.0372 186.858 24.0372Z" fill="white"/>
<path d="M170.806 28.4348L169.983 25.4907C168.6 27.2423 166.206 28.8448 162.691 28.8448C157.456 28.8448 153.753 24.3354 153.753 18.7081C153.753 13.0435 157.456 8.57148 162.691 8.57148C165.945 8.57148 168.113 10.323 169.16 11.6647V2.44312H173.835V28.4348H170.806ZM163.85 24.5963C166.992 24.5963 169.16 21.9876 169.16 18.7081C169.16 15.3913 166.992 12.8199 163.85 12.8199C160.634 12.8199 158.465 15.3168 158.465 18.7081C158.465 22.0621 160.634 24.5963 163.85 24.5963Z" fill="white"/>
<path d="M145.63 2.8323C145.63 1.26708 146.827 0 148.435 0C150.006 0 151.277 1.26708 151.277 2.8323C151.277 4.39751 150.006 5.6646 148.435 5.6646C146.827 5.6646 145.63 4.39751 145.63 2.8323ZM150.828 28.4348H146.154V8.98138H150.828V28.4348Z" fill="white"/>
<path d="M136.658 28.4348H131.983V8.98143H134.974L136.097 12.41C137.144 10.5466 138.864 8.31059 143.875 8.60871L143.239 13.5652C138.228 13.2299 136.658 15.8385 136.658 18.969V28.4348Z" fill="white"/>
<path d="M119.501 28.4347H108.432V2.34778H118.566C122.829 2.34778 127.952 4.09934 127.952 9.50307C127.952 12.5963 125.97 14.1987 124.325 15.0558V15.0931C126.083 15.8384 128.887 17.4782 128.887 21.3167C128.887 26.5714 124.437 28.4347 119.501 28.4347ZM113.219 6.48441V13.2298H118.678C121.558 13.2298 123.128 11.9254 123.128 9.95025C123.128 7.45337 121.482 6.48441 118.341 6.48441H113.219ZM113.219 17.2919V24.2981H119.239C122.605 24.2981 124.063 23.1801 124.063 20.9068C124.063 18.7453 122.305 17.2919 119.351 17.2919H113.219Z" fill="white"/>
<path d="M105.296 20.4969H91.0115C91.5725 23.2546 93.5543 24.7826 96.4712 24.7826C98.6025 24.7826 99.8742 24.3727 101.931 22.9565L104.1 26.0869C101.706 28.0621 99.5 28.8447 96.3217 28.8447C90.4132 28.8447 86.2251 24.4099 86.2251 18.7081C86.2251 13.0062 90.6 8.57141 96.1343 8.57141C102.155 8.57141 105.296 13.2298 105.296 18.7826V20.4969ZM90.9742 17.1428H100.697C100.473 14.795 99.0885 12.559 96.1721 12.559C93.517 12.559 91.4975 14.1987 90.9742 17.1428Z" fill="white"/>
<path d="M80.2684 28.4348L79.446 25.4907C78.062 27.2423 75.6688 28.8448 72.1535 28.8448C66.9184 28.8448 63.2163 24.3354 63.2163 18.7081C63.2163 13.0435 66.9184 8.57148 72.1535 8.57148C75.4069 8.57148 77.5761 10.323 78.6231 11.6647V2.44312H83.2977V28.4348H80.2684ZM73.3129 24.5963C76.454 24.5963 78.6231 21.9876 78.6231 18.7081C78.6231 15.3913 76.454 12.8199 73.3129 12.8199C70.0967 12.8199 67.9282 15.3168 67.9282 18.7081C67.9282 22.0621 70.0967 24.5963 73.3129 24.5963Z" fill="white"/>
<path fill-rule="evenodd" clip-rule="evenodd" d="M44.3519 29.25H51.1753C51.1753 28.9655 51.1706 28.6822 51.1613 28.4H45.8381L51.1057 27.3558C51.0615 26.756 50.9965 26.1619 50.9114 25.5743L45.9178 26.5642L50.7455 24.5713C50.6291 23.9457 50.4898 23.3282 50.3285 22.7195L45.6039 24.6697L50.04 21.7157C49.84 21.0703 49.615 20.4357 49.366 19.8133L44.8768 22.8026L48.9219 18.7713C48.6254 18.1164 48.3019 17.4762 47.9528 16.8522L43.7387 21.0518L47.2965 15.7455C46.8901 15.098 46.4553 14.47 45.9939 13.8632L42.2091 19.5083L45.044 12.6876C44.5167 12.073 43.9606 11.4836 43.3777 10.9217L40.4858 17.8795C42.9107 21.0302 44.3519 24.9724 44.3519 29.25ZM6.82337 29.25C6.82337 28.7349 6.84426 28.2247 6.88524 27.7201H0.0452917C0.0152392 28.2262 0 28.7364 0 29.25H6.82337ZM7.33514 24.894L0.637905 23.5664C0.861392 22.588 1.14134 21.631 1.47416 20.6989L8.26663 22.0454C7.88298 22.9603 7.57023 23.9122 7.33514 24.894ZM9.56827 19.507L3.20643 16.8809C3.68461 16.0234 4.21097 15.1963 4.78187 14.4031L11.3211 17.1025C10.6756 17.8547 10.089 18.6586 9.56827 19.507ZM13.2575 15.1536L7.43607 11.2772C8.11864 10.5925 8.83987 9.94634 9.59632 9.3421L15.6591 13.3792C14.8108 13.9074 14.0079 14.5012 13.2575 15.1536ZM17.9052 12.184L12.8392 7.13536C13.6672 6.66027 14.5243 6.23007 15.4074 5.84802L20.754 11.1763C19.7703 11.4369 18.8184 11.7751 17.9052 12.184ZM22.9545 10.7327L18.8684 4.6383C19.7777 4.39234 20.7071 4.19508 21.6536 4.04953L26.0152 10.5547C25.873 10.5516 25.7305 10.55 25.5876 10.55C24.6939 10.55 23.8148 10.6123 22.9545 10.7327ZM27.8591 10.6856L24.9794 3.75706C25.1816 3.75236 25.3843 3.75 25.5876 3.75C26.3277 3.75 27.0604 3.78131 27.7846 3.84267L30.8866 11.306C29.9082 11.0196 28.8967 10.8104 27.8591 10.6856ZM32.2052 11.7461L30.7113 4.26134C31.6161 4.44461 32.5036 4.67546 33.371 4.95116L34.9902 13.0635C34.1051 12.5518 33.1743 12.1102 32.2052 11.7461ZM35.7659 13.5374V5.84717C36.5851 6.20149 37.382 6.59727 38.154 7.03191V15.3626C37.4097 14.6932 36.6112 14.0823 35.7659 13.5374ZM38.4951 15.6769L39.993 8.17204C40.6993 8.65236 41.3802 9.16705 42.0333 9.71363L40.4203 17.795C39.833 17.0408 39.1892 16.3327 38.4951 15.6769Z" fill="#F0B90B"/>
<path fill-rule="evenodd" clip-rule="evenodd" d="M37.5284 29.2498H44.3517C44.3517 28.9243 44.3434 28.6008 44.3269 28.2794L40.9327 28.2203L44.2812 27.617C44.2109 26.8071 44.0888 26.012 43.9182 25.235L40.0736 25.9278L43.7382 24.4892C43.5391 23.733 43.2936 22.9956 43.005 22.28L38.8112 23.9263L42.6529 21.4637C42.3383 20.7801 41.9836 20.1187 41.5919 19.4825L37.2288 22.2792L41.0289 18.6221C40.6159 18.0273 40.1693 17.4576 39.6916 16.9156L35.4134 21.0329L38.8807 16.0518C38.3885 15.5594 37.869 15.0943 37.3245 14.6588L33.4588 20.2121L36.2348 13.8497C35.6844 13.471 35.1127 13.1209 34.5219 12.8015L31.7844 19.0757C35.2283 21.1635 37.5284 24.9389 37.5284 29.2498ZM13.6466 29.2498H6.82324C6.82324 28.9338 6.83109 28.6196 6.84661 28.3075L13.6747 28.4263C13.6561 28.6984 13.6466 28.973 13.6466 29.2498ZM33.1363 12.1246C32.551 11.868 31.9501 11.6404 31.3354 11.4434L29.8763 18.1405C30.4905 18.3761 31.0801 18.6608 31.6405 18.9899L33.1363 12.1246ZM29.6603 10.9915C29.0656 10.8604 28.4603 10.7573 27.8458 10.6838L27.7257 17.54C28.3477 17.6521 28.9529 17.8122 29.5373 18.0162L29.6603 10.9915ZM25.5875 10.5498C25.1092 10.5498 24.6351 10.5676 24.1657 10.6027L25.3903 17.3514C25.4559 17.3503 25.5216 17.3498 25.5875 17.3498C26.1244 17.3498 26.6531 17.3851 27.1712 17.4535L25.9191 10.5527C25.8088 10.5508 25.6982 10.5498 25.5875 10.5498ZM22.0269 17.8878L18.2487 12.0341C17.7634 12.2398 17.2887 12.4653 16.8254 12.7095L20.5387 18.4627C21.0182 18.2394 21.5152 18.0469 22.0269 17.8878ZM19.5228 18.9967L14.6989 14.0185C14.2949 14.3058 13.9028 14.6087 13.5235 14.9264L18.2814 19.8365C18.6763 19.5317 19.0908 19.2511 19.5228 18.9967ZM11.6084 16.775C11.2975 17.1209 10.9993 17.4783 10.7145 17.8467L16.3321 21.7304C16.6289 21.368 16.9466 21.0234 17.2835 20.6985L11.6084 16.775ZM9.16739 20.1921C8.95595 20.5719 8.75744 20.9599 8.57236 21.3554L14.8346 24.069C15.0263 23.6746 15.2391 23.2925 15.4717 22.9238L9.16739 20.1921ZM7.54188 24.1067C7.4304 24.4958 7.33129 24.8901 7.24493 25.2891L13.9143 26.7323C14.0009 26.3318 14.1076 25.9389 14.2335 25.5545L7.54188 24.1067ZM24.6281 17.3877C24.0583 17.4328 23.4999 17.5178 22.9555 17.6398L20.4351 11.2636C20.9662 11.1128 21.5069 10.9847 22.056 10.8805L24.6281 17.3877Z" fill="#F0B90B"/>
<path fill-rule="evenodd" clip-rule="evenodd" d="M36.5758 29.2498L37.5283 29.2166C37.5278 29.0267 37.5228 28.8378 37.5134 28.6501L31.7252 28.8516L31.6238 28.8351L37.3972 27.4803C37.3649 27.2641 37.3267 27.0498 37.2829 26.8376L31.8001 28.1242L37.0066 25.7596C36.9337 25.5229 36.8538 25.2892 36.7668 25.059L31.8908 27.2735L36.3448 24.0781C36.2237 23.8284 36.0942 23.5837 35.9565 23.3442L31.7639 26.3521L35.3997 22.4665C35.2237 22.2141 35.0382 21.9689 34.8437 21.7313L31.3968 25.4149L34.1597 20.9655C33.9238 20.7231 33.6776 20.4907 33.422 20.269L30.7806 24.5227L32.6166 19.629C32.3184 19.4123 32.0098 19.209 31.6916 19.02L29.9218 23.7376L30.7732 18.5275C30.4145 18.3549 30.0457 18.1996 29.6681 18.0628L28.8415 23.1209L28.6532 17.7456C28.2412 17.6368 27.8205 17.5495 27.3923 17.4848L27.5761 22.7286L26.3102 17.3712C26.0711 17.357 25.8301 17.3497 25.5874 17.3497C25.369 17.3497 25.152 17.3556 24.9364 17.3671L26.1753 22.61L23.8284 17.478C23.3432 17.5494 22.8675 17.6498 22.4032 17.7775L24.7003 22.8008L21.3262 18.1299C20.8451 18.3131 20.3789 18.5264 19.9301 18.7675L23.2223 23.3249L18.9509 19.3554C18.5028 19.6545 18.0762 19.983 17.6738 20.3382L21.8164 24.188L16.8579 21.1301C16.4734 21.5405 16.1176 21.9781 15.7939 22.4397L20.5619 25.3802L15.1971 23.3813C14.9071 23.8901 14.6536 24.4224 14.4402 24.9746L19.5354 26.8731L14.0998 25.9909C13.933 26.576 13.81 27.1795 13.7345 27.7976L18.8065 28.6207L13.6549 28.8C13.6493 28.9493 13.6465 29.0992 13.6465 29.2498H20.4699C20.4699 26.4331 22.7611 24.1497 25.5874 24.1497C28.4137 24.1497 30.7049 26.4331 30.7049 29.2498H36.5758Z" fill="#F0B90B"/>
</g>
<defs>
<clipPath id="clip0_83_145">
<rect width="219" height="36" fill="white"/>
</clipPath>
</defs>
</svg>
