<svg width="219" height="36" viewBox="0 0 219 36" fill="none" xmlns="http://www.w3.org/2000/svg">
<g clip-path="url(#clip0_71_931)">
<path d="M218.841 20.4977H204.556C205.118 23.2555 207.099 24.7835 210.016 24.7835C212.148 24.7835 213.419 24.3735 215.475 22.9574L217.645 26.0878C215.251 28.0629 213.045 28.8456 209.867 28.8456C203.958 28.8456 199.77 24.4107 199.77 18.7089C199.77 13.0071 204.145 8.57227 209.679 8.57227C215.7 8.57227 218.841 13.2307 218.841 18.7834V20.4977ZM204.519 17.1437H214.242C214.018 14.7959 212.634 12.5598 209.717 12.5598C207.062 12.5598 205.042 14.1996 204.519 17.1437Z" fill="black"/>
<path d="M179.267 34.5102L180.464 30.5971C182.221 31.417 184.203 31.9387 186.223 31.9387C190.935 31.9387 192.168 30.0008 192.168 26.7213V25.2306C191.121 26.5723 188.952 28.2865 185.699 28.2865C180.464 28.2865 176.762 24.1126 176.762 18.4853C176.762 12.8207 180.464 8.57227 185.699 8.57227C189.214 8.57227 191.607 10.1375 192.991 11.889L193.814 8.98222H196.843V25.8642C196.843 33.0195 193.029 36.0008 186.596 36.0008C182.894 36.0008 180.427 35.1064 179.267 34.5102ZM186.858 24.0381C189.999 24.0381 192.168 21.7648 192.168 18.4853C192.168 15.2058 189.999 12.8207 186.858 12.8207C183.642 12.8207 181.474 15.094 181.474 18.4853C181.474 21.8393 183.642 24.0381 186.858 24.0381Z" fill="black"/>
<path d="M170.806 28.4351L169.984 25.491C168.6 27.2425 166.206 28.845 162.692 28.845C157.456 28.845 153.754 24.3357 153.754 18.7084C153.754 13.0438 157.456 8.57172 162.692 8.57172C165.945 8.57172 168.114 10.3233 169.161 11.6649V2.44336H173.835V28.4351H170.806ZM163.85 24.5966C166.992 24.5966 169.161 21.9879 169.161 18.7084C169.161 15.3916 166.992 12.8202 163.85 12.8202C160.635 12.8202 158.466 15.3171 158.466 18.7084C158.466 22.0624 160.635 24.5966 163.85 24.5966Z" fill="black"/>
<path d="M145.631 2.8323C145.631 1.26708 146.827 0 148.436 0C150.006 0 151.277 1.26708 151.277 2.8323C151.277 4.39751 150.006 5.6646 148.436 5.6646C146.827 5.6646 145.631 4.39751 145.631 2.8323ZM150.829 28.4348H146.155V8.98138H150.829V28.4348Z" fill="black"/>
<path d="M136.657 28.4351H131.982V8.98167H134.974L136.096 12.4102C137.143 10.5469 138.863 8.31083 143.874 8.60896L143.238 13.5655C138.227 13.2301 136.657 15.8388 136.657 18.9693V28.4351Z" fill="black"/>
<path d="M119.501 28.4346H108.432V2.34766H118.566C122.829 2.34766 127.952 4.09921 127.952 9.50294C127.952 12.5961 125.97 14.1986 124.325 15.0557V15.093C126.083 15.8383 128.887 17.4781 128.887 21.3166C128.887 26.5713 124.437 28.4346 119.501 28.4346ZM113.219 6.48429V13.2297H118.678C121.558 13.2297 123.128 11.9253 123.128 9.95013C123.128 7.45325 121.482 6.48429 118.341 6.48429H113.219ZM113.219 17.2918V24.298H119.239C122.605 24.298 124.063 23.18 124.063 20.9067C124.063 18.7452 122.305 17.2918 119.351 17.2918H113.219Z" fill="black"/>
<path d="M105.296 20.4977H91.011C91.572 23.2555 93.5538 24.7835 96.4708 24.7835C98.6021 24.7835 99.8737 24.3735 101.931 22.9574L104.099 26.0878C101.706 28.0629 99.4995 28.8456 96.3212 28.8456C90.4127 28.8456 86.2246 24.4107 86.2246 18.7089C86.2246 13.0071 90.5995 8.57227 96.1338 8.57227C102.155 8.57227 105.296 13.2307 105.296 18.7834V20.4977ZM90.9737 17.1437H100.696C100.472 14.7959 99.088 12.5598 96.1716 12.5598C93.5165 12.5598 91.497 14.1996 90.9737 17.1437Z" fill="black"/>
<path d="M80.2689 28.4351L79.4465 25.491C78.0625 27.2425 75.6693 28.845 72.154 28.845C66.9189 28.845 63.2168 24.3357 63.2168 18.7084C63.2168 13.0438 66.9189 8.57172 72.154 8.57172C75.4074 8.57172 77.5765 10.3233 78.6236 11.6649V2.44336H83.2982V28.4351H80.2689ZM73.3134 24.5966C76.4544 24.5966 78.6236 21.9879 78.6236 18.7084C78.6236 15.3916 76.4544 12.8202 73.3134 12.8202C70.0972 12.8202 67.9287 15.3171 67.9287 18.7084C67.9287 22.0624 70.0972 24.5966 73.3134 24.5966Z" fill="black"/>
<path fill-rule="evenodd" clip-rule="evenodd" d="M44.3519 29.25H51.1753C51.1753 28.9655 51.1706 28.6822 51.1613 28.4H45.8381L51.1057 27.3558C51.0615 26.756 50.9965 26.1619 50.9114 25.5743L45.9178 26.5642L50.7455 24.5713C50.6291 23.9457 50.4898 23.3282 50.3285 22.7195L45.6039 24.6697L50.04 21.7157C49.84 21.0703 49.615 20.4357 49.366 19.8133L44.8768 22.8026L48.9219 18.7713C48.6254 18.1164 48.3019 17.4762 47.9528 16.8522L43.7387 21.0518L47.2965 15.7455C46.8901 15.098 46.4553 14.47 45.9939 13.8632L42.2091 19.5083L45.044 12.6876C44.5167 12.073 43.9606 11.4836 43.3777 10.9217L40.4858 17.8795C42.9107 21.0302 44.3519 24.9724 44.3519 29.25ZM6.82337 29.25C6.82337 28.7349 6.84426 28.2247 6.88524 27.7201H0.0452917C0.0152392 28.2262 0 28.7364 0 29.25H6.82337ZM7.33515 24.894L0.637905 23.5664C0.861392 22.588 1.14134 21.631 1.47416 20.6989L8.26663 22.0454C7.88298 22.9603 7.57023 23.9122 7.33515 24.894ZM9.56827 19.507L3.20643 16.8809C3.68461 16.0234 4.21097 15.1963 4.78187 14.4031L11.3211 17.1025C10.6756 17.8547 10.089 18.6586 9.56827 19.507ZM13.2575 15.1536L7.43607 11.2772C8.11863 10.5925 8.83987 9.94634 9.59632 9.3421L15.6591 13.3792C14.8108 13.9074 14.0079 14.5012 13.2575 15.1536ZM17.9052 12.184L12.8392 7.13536C13.6672 6.66027 14.5243 6.23007 15.4074 5.84802L20.754 11.1763C19.7703 11.4369 18.8184 11.7751 17.9052 12.184ZM22.9545 10.7327L18.8684 4.6383C19.7777 4.39234 20.7071 4.19508 21.6536 4.04953L26.0152 10.5547C25.873 10.5516 25.7305 10.55 25.5876 10.55C24.6939 10.55 23.8148 10.6123 22.9545 10.7327ZM27.8591 10.6856L24.9794 3.75706C25.1816 3.75236 25.3843 3.75 25.5876 3.75C26.3277 3.75 27.0604 3.78131 27.7846 3.84267L30.8866 11.306C29.9082 11.0196 28.8967 10.8104 27.8591 10.6856ZM32.2052 11.7461L30.7113 4.26134C31.6161 4.44461 32.5036 4.67546 33.371 4.95116L34.9902 13.0635C34.1051 12.5518 33.1743 12.1102 32.2052 11.7461ZM35.7659 13.5374V5.84717C36.5851 6.20149 37.382 6.59727 38.154 7.03191V15.3626C37.4097 14.6932 36.6112 14.0823 35.7659 13.5374ZM38.4951 15.6769L39.993 8.17204C40.6993 8.65236 41.3802 9.16705 42.0333 9.71363L40.4203 17.795C39.8331 17.0408 39.1892 16.3327 38.4951 15.6769Z" fill="#F0B90B"/>
<path fill-rule="evenodd" clip-rule="evenodd" d="M37.5294 29.2508H44.3527C44.3527 28.9253 44.3444 28.6018 44.3279 28.2804L40.9337 28.2213L44.2822 27.6179C44.2119 26.808 44.0898 26.0129 43.9192 25.236L40.0746 25.9288L43.7392 24.4902C43.5401 23.734 43.2946 22.9965 43.006 22.2809L38.8122 23.9273L42.6539 21.4647C42.3393 20.7811 41.9846 20.1197 41.5928 19.4834L37.2298 22.2802L41.0299 18.6231C40.6169 18.0283 40.1702 17.4586 39.6926 16.9166L35.4143 21.0339L38.8817 16.0528C38.3895 15.5604 37.87 15.0953 37.3255 14.6597L33.4598 20.2131L36.2357 13.8506C35.6854 13.472 35.1137 13.1219 34.5229 12.8025L31.7854 19.0767C35.2293 21.1645 37.5294 24.9399 37.5294 29.2508ZM13.6476 29.2508H6.82422C6.82422 28.9348 6.83206 28.6206 6.84759 28.3085L13.6757 28.4273C13.6571 28.6993 13.6476 28.9739 13.6476 29.2508ZM33.1372 12.1256C32.552 11.869 31.9511 11.6414 31.3364 11.4444L29.8773 18.1414C30.4915 18.3771 31.0811 18.6618 31.6415 18.9909L33.1372 12.1256ZM29.6612 10.9925C29.0665 10.8613 28.4612 10.7583 27.8468 10.6848L27.7267 17.541C28.3486 17.6531 28.9538 17.8132 29.5382 18.0172L29.6612 10.9925ZM25.5885 10.5508C25.1102 10.5508 24.636 10.5686 24.1667 10.6037L25.3913 17.3524C25.4569 17.3513 25.5226 17.3508 25.5885 17.3508C26.1254 17.3508 26.654 17.3861 27.1722 17.4545L25.9201 10.5537C25.8098 10.5517 25.6992 10.5508 25.5885 10.5508ZM22.0278 17.8888L18.2496 12.0351C17.7644 12.2408 17.2897 12.4663 16.8264 12.7105L20.5397 18.4637C21.0192 18.2404 21.5161 18.0479 22.0278 17.8888ZM19.5238 18.9977L14.6999 14.0194C14.2958 14.3068 13.9037 14.6097 13.5244 14.9274L18.2824 19.8375C18.6773 19.5327 19.0918 19.252 19.5238 18.9977ZM11.6094 16.776C11.2985 17.1218 11.0002 17.4793 10.7155 17.8476L16.3331 21.7314C16.6298 21.369 16.9475 21.0244 17.2845 20.6995L11.6094 16.776ZM9.16837 20.193C8.95693 20.5729 8.75842 20.9609 8.57334 21.3563L14.8356 24.07C15.0272 23.6756 15.2401 23.2934 15.4727 22.9248L9.16837 20.193ZM7.54285 24.1076C7.43138 24.4967 7.33227 24.891 7.24591 25.2901L13.9153 26.7332C14.0018 26.3328 14.1086 25.9399 14.2345 25.5555L7.54285 24.1076ZM24.629 17.3886C24.0593 17.4338 23.5008 17.5187 22.9564 17.6408L20.4361 11.2645C20.9672 11.1137 21.5078 10.9857 22.057 10.8815L24.629 17.3886Z" fill="#F0B90B"/>
<path fill-rule="evenodd" clip-rule="evenodd" d="M36.5758 29.2496L37.5283 29.2165C37.5278 29.0265 37.5228 28.8377 37.5134 28.65L31.7252 28.8514L31.6238 28.835L37.3972 27.4802C37.3649 27.264 37.3267 27.0497 37.2829 26.8375L31.8001 28.1241L37.0066 25.7595C36.9337 25.5227 36.8538 25.2891 36.7668 25.0588L31.8908 27.2733L36.3448 24.078C36.2237 23.8283 36.0942 23.5836 35.9565 23.3441L31.7639 26.352L35.3997 22.4663C35.2237 22.214 35.0382 21.9688 34.8437 21.7312L31.3968 25.4148L34.1597 20.9654C33.9238 20.723 33.6776 20.4906 33.422 20.2689L30.7806 24.5226L32.6166 19.6289C32.3184 19.4122 32.0098 19.2089 31.6916 19.0199L29.9218 23.7375L30.7732 18.5274C30.4145 18.3547 30.0457 18.1995 29.6681 18.0626L28.8415 23.1208L28.6532 17.7455C28.2412 17.6367 27.8205 17.5494 27.3923 17.4847L27.5761 22.7285L26.3102 17.3711C26.0711 17.3569 25.8301 17.3496 25.5874 17.3496C25.369 17.3496 25.152 17.3555 24.9364 17.367L26.1753 22.6098L23.8284 17.4779C23.3432 17.5492 22.8675 17.6497 22.4032 17.7774L24.7003 22.8007L21.3262 18.1297C20.8451 18.3129 20.3789 18.5262 19.9301 18.7673L23.2223 23.3248L18.9509 19.3553C18.5028 19.6544 18.0762 19.9829 17.6738 20.3381L21.8164 24.1879L16.8579 21.1299C16.4734 21.5404 16.1176 21.978 15.7939 22.4396L20.5619 25.38L15.1971 23.3811C14.9071 23.89 14.6536 24.4223 14.4402 24.9745L19.5354 26.873L14.0998 25.9908C13.933 26.5759 13.81 27.1794 13.7345 27.7974L18.8065 28.6206L13.6549 28.7999C13.6493 28.9491 13.6465 29.0991 13.6465 29.2496H20.4699C20.4699 26.433 22.7611 24.1496 25.5874 24.1496C28.4137 24.1496 30.7049 26.433 30.7049 29.2496H36.5758Z" fill="#F0B90B"/>
</g>
<defs>
<clipPath id="clip0_71_931">
<rect width="219" height="36" fill="white"/>
</clipPath>
</defs>
</svg>
