<svg width="222" height="44" viewBox="0 0 222 44" fill="none" xmlns="http://www.w3.org/2000/svg">
<path fill-rule="evenodd" clip-rule="evenodd" d="M21.4182 16.2108L21.4372 16.247C21.997 16.247 22.4125 15.6278 22.506 14.8437C22.0462 14.9961 21.5942 15.1564 21.1455 15.3151C21.09 15.4094 21.0345 15.5037 20.9711 15.587C20.7649 15.807 21.136 16.2093 21.4182 16.2093V16.2108ZM47.9758 16.7294C46.8007 12.0151 37.6004 10.8428 26.5892 13.6494C26.196 13.9417 25.7472 14.0737 25.3999 14.1287C24.485 14.2623 24.1567 14.322 24.0679 14.9081C23.9807 15.4943 25.5427 15.7834 26.594 15.0228C27.3012 14.5137 27.8102 13.409 28.4382 13.332C29.2532 13.2361 29.4007 15.3575 28.9345 16.4025C28.4667 17.4475 26.8937 18.1217 26.3022 17.5937C26.0992 17.402 26.1278 17.2951 26.0992 16.8473C26.0707 16.3978 25.0305 16.4811 25.0305 17.1631C25.0622 17.6393 25.04 18.1217 24.9607 18.5931C24.6689 20.0923 21.9589 20.3311 21.2565 20.2525C20.5588 20.174 19.7025 19.6287 20.1195 19.2893C21.0757 18.5428 20.4795 16.797 19.0967 16.0867C18.6622 16.2595 18.2325 16.4387 17.806 16.6225C17.8499 16.7291 17.9189 16.8237 18.0071 16.8986C18.0954 16.9735 18.2004 17.0265 18.3134 17.0531C18.6085 17.1412 18.8679 17.3194 19.0548 17.5622C19.2417 17.8051 19.3465 18.1002 19.3542 18.4054C19.3619 18.7107 19.2722 19.0107 19.0979 19.2625C18.9235 19.5143 18.6734 19.7051 18.3832 19.8078C16.5754 20.7978 15.3497 18.964 15.2434 18.5617C15.1562 18.2317 15.0262 18.1028 14.7027 18.0667C6.31429 22.2923 0.962507 27.8064 1.96944 31.9031C3.27448 37.1737 14.6329 38.0223 27.3329 33.8234C40.0345 29.6261 49.284 22.0047 47.9758 16.7294Z" fill="url(#paint0_linear_83_167)"/>
<path fill-rule="evenodd" clip-rule="evenodd" d="M21.553 12.1864C21.416 12.2111 21.2919 12.282 21.2017 12.3872C21.1115 12.4923 21.0608 12.6252 21.0583 12.7631C21.0757 13.0994 21.4738 13.332 21.4738 13.915C21.5261 14.5156 21.3458 15.1134 20.9695 15.587C20.7665 15.807 21.136 16.2108 21.4183 16.2108L21.4373 16.247C22.0795 16.247 22.533 15.4314 22.5235 14.4776C22.6028 13.3273 22.1445 11.99 21.553 12.1833V12.1864ZM25.3635 12.177C25.4487 12.1198 25.5162 12.0404 25.5586 11.9476C25.5892 11.8778 25.6047 11.8025 25.6041 11.7264C25.6034 11.6503 25.5866 11.5752 25.5548 11.506C25.5229 11.4368 25.4767 11.375 25.4192 11.3246C25.3616 11.2743 25.294 11.2365 25.2208 11.2137C24.9243 11.2797 24.6182 11.2844 24.3233 11.2326C24.0274 11.1777 23.7448 11.0673 23.4908 10.9073C23.0642 10.5726 23.2783 9.46941 23.2783 9.46941C23.2957 9.1017 22.8977 8.96027 22.755 8.95084C22.6075 8.94141 22.2698 8.8817 22.0573 9.4317C21.9495 9.8497 21.9685 10.3306 22.0843 10.747C22.2 11.165 22.422 11.5453 22.7265 11.8517C23.088 12.1503 23.532 12.3388 23.9998 12.397C24.466 12.4567 24.9433 12.3797 25.3683 12.177H25.3635ZM45.399 36.6661C44.427 33.8156 39.8014 28.039 34.5622 24.0397C33.6013 23.012 33.3967 21.5411 32.9908 20.13C32.4305 18.6181 32.1636 17.0148 32.2043 15.4047C32.4532 14.2623 32.7767 13.1403 33.1747 12.045C33.8185 9.71141 34.345 7.3417 34.7478 4.95784C34.977 3.66163 34.9441 2.33321 34.651 1.0497C34.2118 -0.697728 27.5185 4.39056 26.2753 5.22499C24.9782 4.57958 23.5825 4.15059 22.1445 3.95527C19.2728 3.67084 16.3725 4.0417 13.672 5.04113C11.322 3.42727 7.41323 0.182272 6.09233 0.681986H6.11928C4.90304 1.1817 5.47548 3.64727 5.72127 5.13699C6.31274 8.67113 7.80173 12.7223 8.19023 15.9484C9.592 27.6084 10.1058 34.4944 22.3713 41.657C23.7255 42.3406 25.1463 42.8906 26.6083 43.2976C29.618 43.692 30.7375 42.262 30.7375 41.3003C30.6187 40.2577 30.1344 39.2894 29.369 38.5644C28.3795 37.4676 26.7653 36.2026 26.0152 35.3006C27.9807 35.0706 29.929 34.7137 31.8475 34.232C32.4736 34.0026 33.1261 33.8517 33.79 33.7826C34.1216 33.8265 34.429 33.9785 34.6637 34.2147C35.4931 34.8967 36.278 35.6258 37.0264 36.3958C37.9946 37.4762 39.0482 38.4783 40.1773 39.3926C40.8271 39.9224 41.6387 40.219 42.4801 40.2341C43.3216 40.2492 44.1434 39.982 44.8123 39.4758C45.204 39.1317 45.4735 38.6744 45.5798 38.1653C45.6872 37.6583 45.6254 37.1305 45.4038 36.6614L45.399 36.6661ZM28.9393 16.4026C28.4715 17.4476 26.8985 18.1217 26.307 17.5953C26.104 17.402 26.1326 17.2967 26.104 16.8473C26.0755 16.3978 25.0353 16.4811 25.0353 17.1647C25.067 17.6408 25.0448 18.1233 24.9655 18.5947C24.6737 20.0923 21.9637 20.3311 21.2613 20.2526C20.5636 20.174 19.7073 19.6303 20.1227 19.2908C21.1376 18.502 20.4145 16.6006 18.87 15.9767C18.315 15.7661 18.1025 15.6876 17.898 15.8903C17.8225 15.9881 17.7734 16.1032 17.7553 16.225C17.738 16.3447 17.7488 16.4668 17.787 16.5817C17.8298 16.6964 17.898 16.8017 17.9915 16.8803C18.0835 16.962 18.1945 17.0217 18.315 17.05C18.6118 17.1358 18.8732 17.313 19.0614 17.556C19.2496 17.799 19.3547 18.0952 19.3616 18.4014C19.3695 18.7071 19.2784 19.0073 19.1015 19.2578C18.9271 19.5108 18.6761 19.7023 18.3848 19.8047C16.5771 20.7947 15.3497 18.9608 15.2451 18.557C15.1372 18.1547 14.9707 18.0494 14.457 18.0494C11.9975 17.9708 12.0388 17.0028 11.793 16.2926C11.5488 15.5823 12.1735 15.2476 12.2798 15.3308C12.6445 15.642 13.1028 15.8306 13.5832 15.8667C14.097 15.7803 14.051 16.0961 14.5553 16.742C15.4116 17.8373 16.1505 16.3978 15.6653 16.1291C14.5965 15.5226 14.8788 14.5514 15.2578 14.3408C15.3487 14.3054 15.4298 14.2488 15.494 14.1758C15.5568 14.1012 15.6009 14.0129 15.6227 13.9181C15.6445 13.8233 15.6433 13.7248 15.6193 13.6306C15.5933 13.5371 15.5455 13.451 15.4798 13.3791C15.3492 13.255 15.1754 13.1858 14.9945 13.1858C14.8137 13.1858 14.6398 13.255 14.5093 13.3791C13.856 13.9747 14.2635 14.7117 13.7228 14.762C12.9172 14.8217 11.544 13.86 12.1085 11.9397C12.673 10.0194 15.0215 10.0194 15.0215 10.0194L14.9612 10.6826C15.002 11.0909 15.128 11.4864 15.3311 11.844C15.5341 12.2016 15.8099 12.5135 16.141 12.76C17.6078 13.585 19.1237 13.1811 19.2395 12.6264C19.3093 12.2823 18.8335 11.88 18.074 11.9256C17.618 11.9757 17.1589 11.8641 16.7781 11.6107C16.3972 11.3572 16.1193 10.9783 15.9935 10.5411C15.9343 10.0181 16.0616 9.4911 16.3535 9.05142C16.6453 8.61141 17.0797 8.28141 17.5903 8.12113C17.9754 7.97981 18.3988 7.97976 18.7839 8.121C19.169 8.26224 19.4904 8.53543 19.6898 8.89113C19.7437 8.9917 19.758 9.11113 19.8325 9.19756C19.9417 9.33285 20.0975 9.4233 20.27 9.45145C20.4425 9.47959 20.6194 9.44345 20.7665 9.34999C20.7665 9.34999 21.7005 7.92941 22.8248 8.00641C23.1483 8.02999 23.4591 8.13056 23.735 8.29556C24.0125 8.46056 24.244 8.6947 24.4105 8.9697C24.4105 8.9697 26.9873 8.46056 27.4123 10.7061C27.907 13.2833 26.3165 13.992 25.4 14.1256C24.485 14.2576 24.1568 14.3173 24.068 14.905C23.9808 15.4911 25.5427 15.7803 26.594 15.0197C27.3013 14.5106 27.8103 13.4058 28.4398 13.3273C29.2533 13.233 29.4007 15.3544 28.9345 16.3978L28.9393 16.4026Z" fill="white"/>
<path d="M21.5485 20.3814C21.428 20.3814 21.3313 20.3767 21.252 20.3657C20.7112 20.3076 20.0262 19.9682 19.9152 19.5957C19.874 19.4496 19.92 19.3082 20.0548 19.2029C20.3878 18.942 20.5305 18.5334 20.4607 18.0432C20.3449 17.2323 19.6742 16.4246 18.8274 16.082C18.2692 15.8667 18.1249 15.8337 17.987 15.9626C17.926 16.0433 17.8862 16.1378 17.8712 16.2376C17.8571 16.3389 17.8663 16.442 17.8982 16.5393C17.9341 16.6359 17.9934 16.7224 18.0708 16.7911C18.1482 16.8599 18.2413 16.9088 18.3422 16.9337C18.6627 17.0275 18.945 17.2194 19.1486 17.4819C19.3523 17.7445 19.4669 18.0641 19.476 18.3952C19.4861 18.7242 19.3901 19.0479 19.2019 19.3192C19.0136 19.5905 18.7431 19.7953 18.4294 19.9037C17.7919 20.2526 17.1592 20.2982 16.5535 20.042C15.7258 19.6884 15.2056 18.8634 15.1327 18.5806C15.0455 18.2506 14.9488 18.1579 14.4572 18.1579C12.1912 18.0887 11.9518 17.2464 11.7615 16.5676C11.7387 16.4847 11.7139 16.4025 11.6869 16.3209C11.5157 15.8243 11.725 15.4629 11.974 15.2932C12.0945 15.2114 12.2562 15.1517 12.3577 15.2334C12.705 15.5273 13.1299 15.7049 13.5835 15.7473C14.01 15.6829 14.1337 15.884 14.324 16.1873C14.4033 16.3162 14.5048 16.4812 14.6522 16.6682C14.8742 16.9526 15.0962 17.072 15.304 17.017C15.5212 16.9573 15.6782 16.7043 15.7067 16.4937C15.7162 16.434 15.721 16.2832 15.6148 16.2234C14.9107 15.8243 14.806 15.3073 14.806 15.0323C14.806 14.6929 14.971 14.3676 15.2025 14.234L15.2167 14.2262C15.2909 14.1973 15.3572 14.1516 15.4102 14.0926C15.4614 14.0326 15.4976 13.9615 15.5161 13.8851C15.5345 13.8087 15.5346 13.7291 15.5164 13.6526C15.4964 13.5766 15.4565 13.5072 15.4007 13.4514C15.2924 13.3498 15.1487 13.2935 14.9995 13.2943C14.8479 13.2956 14.7024 13.3533 14.592 13.4562C14.2907 13.7312 14.2399 14.0282 14.1892 14.2937C14.1432 14.5609 14.0925 14.839 13.7325 14.872C13.2568 14.9034 12.6955 14.6284 12.3307 14.1837C11.855 13.6023 11.7345 12.7914 11.9977 11.902C12.5797 9.92202 14.9995 9.89845 15.0217 9.89845H15.147L15.0772 10.6732C15.12 11.0629 15.2358 11.4337 15.4292 11.7779C15.6227 12.122 15.8827 12.4143 16.2015 12.6532C17.1814 13.2032 18.1852 13.1937 18.7497 12.9423C18.9622 12.8464 19.097 12.7223 19.1239 12.5934C19.143 12.5117 19.1065 12.4143 19.0288 12.3232C18.8845 12.1629 18.5594 11.9979 18.079 12.0293C17.5965 12.0816 17.1109 11.963 16.7082 11.6947C16.3054 11.4264 16.0113 11.0256 15.878 10.5632V10.5443C15.813 9.99431 15.9478 9.44116 16.2522 8.97759C16.5583 8.51402 17.0149 8.17145 17.5477 8.00173C17.9537 7.84931 18.404 7.84931 18.8147 8.00173C19.227 8.15259 19.5679 8.44645 19.782 8.82673C19.809 8.87702 19.828 8.92731 19.8454 8.97288C19.8592 9.02406 19.8829 9.07209 19.9152 9.11431C19.975 9.18955 20.0526 9.249 20.1411 9.28738C20.2296 9.32576 20.3263 9.34188 20.4226 9.33431C20.5124 9.32658 20.5995 9.29978 20.6779 9.25573C20.808 9.06402 21.715 7.80373 22.8298 7.88231C23.1573 7.90545 23.4751 8.00312 23.7583 8.16774C24.0416 8.33235 24.2827 8.55947 24.463 8.83145C24.758 8.78431 25.8077 8.67902 26.6117 9.22116C27.0937 9.54173 27.3982 10.032 27.5187 10.6732C27.7217 11.737 27.598 12.5982 27.1492 13.2267C26.6117 13.9779 25.757 14.1743 25.4097 14.2262C24.4741 14.3629 24.249 14.4147 24.1744 14.9082C24.157 15.0323 24.2632 15.1234 24.3552 15.1784C24.758 15.422 25.7617 15.4629 26.5197 14.9129C26.802 14.7117 27.0557 14.4037 27.3015 14.1067C27.663 13.6667 28.0039 13.2534 28.421 13.2032C28.6287 13.1812 28.8174 13.2676 28.9617 13.464C29.3867 14.0329 29.4247 15.5634 29.0362 16.434C28.708 17.1726 27.8755 17.699 27.2285 17.8373C26.802 17.9284 26.4452 17.864 26.22 17.6629C26.0107 17.4664 26.0012 17.3234 25.9885 17.017C25.9885 16.962 25.9837 16.9023 25.979 16.8379C25.9695 16.6964 25.7792 16.665 25.6682 16.665C25.4557 16.6682 25.1417 16.8064 25.1417 17.1459C25.1734 17.622 25.1512 18.1123 25.072 18.5932C24.7945 20.0232 22.5332 20.3626 21.539 20.3626L21.5485 20.3814ZM18.1709 15.6593C18.3612 15.6593 18.588 15.7473 18.9162 15.8714C19.8518 16.247 20.5669 17.1082 20.6922 18.0117C20.7763 18.5837 20.6002 19.0709 20.1975 19.382C20.1229 19.4417 20.1229 19.492 20.1372 19.5329C20.2006 19.7576 20.743 20.0782 21.2758 20.1379C21.9259 20.2117 24.5772 19.987 24.85 18.5712C24.9245 18.1123 24.9467 17.6362 24.915 17.1679C24.915 16.7137 25.3035 16.4607 25.6682 16.4482C25.9742 16.4387 26.201 16.599 26.2153 16.8332C26.2153 16.9023 26.2232 16.962 26.2232 17.017C26.239 17.3156 26.2422 17.3737 26.3818 17.5073C26.5483 17.6582 26.8337 17.699 27.181 17.6267C27.774 17.5026 28.532 17.0217 28.8285 16.357C29.1837 15.5587 29.1615 14.1193 28.7809 13.6117C28.6858 13.4829 28.578 13.4279 28.4527 13.442C28.1292 13.4829 27.8184 13.8584 27.4854 14.2623C27.2317 14.5687 26.9685 14.8909 26.6593 15.1109C25.8775 15.6734 24.7754 15.7112 24.2395 15.3843C24.027 15.257 23.9207 15.0779 23.954 14.8862C24.0539 14.2073 24.4995 14.1429 25.3812 14.0093C25.6967 13.9637 26.4785 13.7814 26.9637 13.1026C27.376 12.5243 27.4918 11.7276 27.2967 10.7234C27.1857 10.142 26.913 9.70202 26.488 9.41759C25.6365 8.84873 24.4393 9.07345 24.4297 9.07816L24.3505 9.09231L24.3092 9.02316C24.1514 8.76521 23.9333 8.54862 23.6733 8.39165C23.4134 8.23468 23.1192 8.14191 22.8155 8.12116C21.7689 8.04731 20.8682 9.39873 20.8587 9.41288L20.8444 9.43645L20.8222 9.44902C20.7085 9.52282 20.5774 9.56613 20.4417 9.57473C20.3077 9.58261 20.1738 9.56003 20.05 9.50873C19.9259 9.4557 19.8161 9.3744 19.7297 9.27145C19.6814 9.20783 19.6454 9.13591 19.6234 9.05931C19.6108 9.02056 19.5955 8.98275 19.5775 8.94616C19.3932 8.61302 19.0939 8.35687 18.7345 8.22468C18.3751 8.09249 17.9797 8.09312 17.6207 8.22645C17.1372 8.37874 16.7212 8.6911 16.4425 9.11116C16.1698 9.52759 16.0492 10.0226 16.1 10.5176C16.2209 10.9252 16.4824 11.2778 16.8389 11.5139C17.1953 11.75 17.6241 11.8545 18.0504 11.8093C18.5372 11.7779 18.9622 11.9193 19.1937 12.1817C19.319 12.3232 19.3745 12.4882 19.3412 12.6484C19.3 12.8512 19.1192 13.0334 18.8385 13.1623C18.2185 13.4373 17.1259 13.4562 16.0714 12.8637L16.0588 12.8543C15.7148 12.5995 15.4281 12.2765 15.2171 11.9058C15.0061 11.5351 14.8752 11.125 14.833 10.7014V10.692L14.879 10.1514C14.3938 10.1876 12.659 10.4217 12.2007 11.9837C11.9597 12.8009 12.0675 13.5332 12.4925 14.0612C12.8572 14.509 13.3567 14.6897 13.6945 14.6662C13.8562 14.6504 13.8895 14.5734 13.9402 14.2764C13.9862 14.0062 14.056 13.6384 14.4112 13.3132C14.5637 13.1702 14.7657 13.0905 14.9757 13.0905C15.1857 13.0905 15.3877 13.1702 15.5402 13.3132C15.6223 13.3973 15.6814 13.5007 15.7119 13.6137C15.7424 13.7267 15.7434 13.8455 15.7147 13.959C15.6898 14.0708 15.6376 14.1748 15.5626 14.262C15.4877 14.3491 15.3924 14.4167 15.2849 14.4587C15.147 14.542 15.0122 14.7667 15.0122 15.0559C15.0122 15.279 15.101 15.7064 15.702 16.0459C15.8605 16.1323 15.9382 16.3146 15.9097 16.5393C15.8732 16.8284 15.6703 17.1679 15.342 17.2543C15.1279 17.314 14.8045 17.2857 14.4493 16.83C14.2907 16.632 14.1892 16.4623 14.1067 16.3287C13.9165 16.0223 13.8705 15.9532 13.5882 15.9987H13.5613C13.0645 15.9576 12.5927 15.7655 12.2102 15.4487C12.1105 15.4771 12.0236 15.5387 11.9644 15.6232C11.8725 15.7426 11.7805 15.9532 11.8915 16.2737L11.9708 16.5314C12.1595 17.1962 12.3529 17.8876 14.4493 17.952C15.0122 17.952 15.2215 18.0887 15.3452 18.5476C15.3928 18.7314 15.8415 19.5187 16.636 19.8534C17.1767 20.0829 17.7412 20.0373 18.32 19.7214L18.3374 19.712C18.6065 19.6207 18.8389 19.4462 19.0004 19.2143C19.162 18.9823 19.2442 18.7051 19.2349 18.4234C19.2269 18.1421 19.1297 17.8704 18.9573 17.6468C18.7848 17.4232 18.5458 17.2589 18.274 17.1773C18.1369 17.1422 18.0105 17.0747 17.9056 16.9805C17.8006 16.8864 17.7203 16.7684 17.6714 16.6367C17.6253 16.5024 17.6111 16.3594 17.6302 16.2187C17.6537 16.0798 17.709 15.9481 17.7919 15.8337L17.8015 15.8212C17.846 15.7727 17.9004 15.734 17.9611 15.7078C18.0217 15.6815 18.0873 15.6682 18.1535 15.6687L18.1709 15.6593ZM21.4375 16.3617H21.3677L21.3439 16.3146C21.2342 16.2897 21.1316 16.2407 21.0438 16.171C20.9559 16.1013 20.885 16.0129 20.8365 15.9123C20.7667 15.7614 20.7842 15.6137 20.8873 15.5084C21.2425 15.0637 21.4137 14.5012 21.363 13.9229C21.363 13.607 21.2425 13.409 21.1267 13.222C21.0395 13.0743 20.9554 12.9376 20.9428 12.7679C20.944 12.6032 21.0026 12.4439 21.1086 12.3171C21.2147 12.1903 21.3616 12.1036 21.5247 12.0717C21.6046 12.048 21.6892 12.0443 21.7708 12.0611C21.8525 12.0778 21.9287 12.1144 21.9925 12.1676C22.4206 12.4976 22.7092 13.5143 22.6395 14.487C22.649 15.1282 22.446 15.719 22.1035 16.0632C22.0181 16.1543 21.9152 16.2277 21.8009 16.279C21.6865 16.3302 21.563 16.3584 21.4375 16.3617ZM21.669 12.2823C21.6405 12.2823 21.6167 12.2823 21.5897 12.2964H21.5755C21.465 12.32 21.365 12.3778 21.29 12.4614C21.2154 12.5447 21.1737 12.6518 21.1727 12.7632C21.1774 12.8684 21.2472 12.9737 21.3217 13.1026C21.4423 13.299 21.5897 13.5426 21.5897 13.9134C21.6452 14.5373 21.4549 15.1549 21.0585 15.6562C21.0395 15.6734 20.9983 15.719 21.0427 15.8212C21.1093 15.9626 21.2837 16.0962 21.4137 16.0962H21.4835L21.5009 16.1323C21.6681 16.1096 21.8222 16.0302 21.937 15.9076C22.2319 15.609 22.4127 15.0637 22.408 14.487C22.4682 13.607 22.2097 12.6343 21.8482 12.3562C21.7975 12.3136 21.7338 12.2892 21.6674 12.287V12.2823H21.669ZM24.3013 12.529C23.6962 12.5331 23.1093 12.3237 22.6458 11.9382C22.3214 11.6151 22.0866 11.2146 21.964 10.7753C21.8396 10.3274 21.8304 9.8558 21.937 9.40345V9.38931C22.1717 8.78902 22.5649 8.82202 22.7314 8.83616H22.7552C22.9867 8.85345 23.4117 9.05616 23.3895 9.47731V9.49145C23.3324 9.77902 23.2547 10.582 23.5592 10.8193C24.0443 11.1242 24.6315 11.2265 25.1925 11.1037H25.248C25.3673 11.1391 25.4739 11.2077 25.5551 11.3013C25.6363 11.3949 25.6887 11.5095 25.7062 11.6317C25.7232 11.7527 25.7068 11.876 25.6587 11.9884C25.6097 12.1024 25.5281 12.1997 25.424 12.2682L25.4097 12.2776C25.0577 12.4426 24.6803 12.5243 24.295 12.5243L24.3013 12.529ZM22.159 9.46473C22.0646 9.87548 22.0738 10.303 22.186 10.7093C22.2922 11.1084 22.5047 11.4714 22.8012 11.7637C23.139 12.0434 23.5592 12.2226 24.0079 12.2776C24.4519 12.3326 24.9007 12.2587 25.3082 12.0717C25.3718 12.0272 25.4226 11.9671 25.4557 11.8973C25.4868 11.8234 25.4978 11.7426 25.4874 11.6632C25.4741 11.5847 25.4414 11.5108 25.3923 11.4479C25.3465 11.3934 25.2868 11.3521 25.2194 11.3284C24.6043 11.4577 23.9625 11.3408 23.4339 11.0032C22.9677 10.637 23.139 9.60459 23.1675 9.45373C23.1754 9.16145 22.8155 9.06873 22.7505 9.06402H22.7219C22.5792 9.05145 22.3382 9.03259 22.1669 9.46316L22.159 9.46473Z" fill="#FF761C"/>
<path d="M61.0498 10.9261V32.0744C61.0498 32.0744 80.0673 35.9652 80.0673 21.505C80.0673 7.04468 61.0498 10.9261 61.0498 10.9261ZM65.975 28.4035V14.7164C65.975 14.7164 75.0913 12.8291 75.0913 21.5285C75.0913 29.3322 65.975 28.4067 65.975 28.4067V28.402V28.4035ZM91.0008 15.3921C86.4418 15.3921 83.0928 19.2264 83.0928 23.9658C83.0928 28.7052 86.4403 32.5458 91.0008 32.5458C95.5613 32.5458 98.8643 28.71 98.8643 23.9705C98.8643 19.2311 95.5613 15.3952 91.0008 15.3952V15.3905V15.3921ZM90.9881 28.6785C88.2813 28.6785 87.6898 25.9458 87.6898 23.9705C87.6898 21.9952 88.0038 19.3285 90.9881 19.3285C93.9692 19.3285 94.2658 21.9905 94.2658 23.9705C94.2658 25.9505 93.6743 28.6785 90.9881 28.6785ZM102.822 16.4952V31.9864H107.258V19.5202C107.258 19.5202 109.953 18.7267 112.373 19.8314C113.087 17.1505 113.248 16.2061 113.248 16.2061C113.248 16.2061 110.99 15.2444 108.039 15.4314C105.09 15.6247 102.822 16.4905 102.822 16.4905V16.4952ZM123.2 15.3905C118.312 14.9741 116.069 16.2658 116.069 16.2658L116.494 19.7402C116.494 19.7402 119.311 18.5994 122.33 19.1588C124.439 19.5517 124.288 22.1005 124.288 22.1005H120.213C118.955 22.1005 117.707 22.3802 116.62 23.012C115.426 23.7097 114.427 24.7814 114.33 26.807C114.144 30.6994 116.523 31.8591 118.109 32.197C120.102 32.197 123.751 32.2661 125.454 32.197C126.469 32.1387 127.464 31.8902 128.386 31.4647V19.4935C128.386 19.4935 128.089 15.7991 123.2 15.3858V15.3905ZM124.288 28.7885H120.348C120.348 28.7885 118.789 28.6408 118.789 27.1008C118.789 25.7352 119.686 25.1035 120.533 25.1035H124.283V28.7885H124.288ZM163.382 15.3905C158.494 14.9741 156.251 16.2658 156.251 16.2658L156.672 19.7402C156.672 19.7402 159.488 18.5994 162.509 19.1588C164.622 19.5517 164.465 22.1005 164.465 22.1005H160.39C159.133 22.1005 157.885 22.3802 156.797 23.012C155.603 23.7097 154.604 24.7814 154.507 26.807C154.322 30.6994 156.7 31.8591 158.286 32.197C160.279 32.197 163.928 32.2661 165.631 32.197C167.217 32.1341 168.563 31.4647 168.563 31.4647V19.4935C168.563 19.4935 168.266 15.7991 163.378 15.3858L163.382 15.3905ZM164.47 28.7885H160.53C160.53 28.7885 158.971 28.6408 158.971 27.1008C158.971 25.7352 159.867 25.1035 160.714 25.1035H164.465V28.7885H164.47ZM146.052 10.5364V19.1022H137.932V10.538H133.019V31.8811H137.932V23.3105H146.052V31.8811H150.965V10.5364H146.049H146.052ZM185.199 16.3302L184.287 19.7214C184.287 19.7214 176.842 17.5167 176.915 23.9611C176.994 30.4055 182.78 28.9111 184.561 28.0044C184.958 30.6491 185.194 31.6705 185.194 31.6705C185.194 31.6705 181.466 32.9811 178.22 32.2252C174.968 31.4741 171.799 29.0667 172.036 23.7647C172.272 18.4564 175.925 16.6744 177.665 15.9264C180.602 14.6755 185.194 16.3302 185.194 16.3302H185.199ZM188.529 8.91939L193.241 8.20911V21.6197L198.555 15.7802H203.709L197.372 22.9208C197.372 22.9208 202.838 29.205 203.994 31.8811C202.45 31.8355 198.644 31.8811 198.644 31.8811C198.644 31.8811 196.984 27.9211 193.33 25.1035V31.8811H188.69L188.533 8.91468L188.529 8.91939ZM217.652 16.2941L216.742 19.6067C216.742 19.6067 210.982 17.9614 210.557 20.042C210.243 21.6197 213.711 22.3991 214.563 22.8014C216.819 23.87 218.3 25.0108 218.3 27.4591C218.3 29.9058 217.176 32.472 211.552 32.472C205.929 32.472 205.567 31.3311 205.567 31.3311L206.479 27.7797C206.479 27.7797 208.634 29.2144 212.306 28.7964C214.563 28.5355 213.827 26.7944 211.93 26.0511C210.039 25.3047 205.104 24.2911 206.395 19.4605C208.149 12.947 217.652 16.2972 217.652 16.2972V16.2941Z" fill="white"/>
<defs>
<linearGradient id="paint0_linear_83_167" x1="9.24945" y1="39.9473" x2="40.3601" y2="8.46656" gradientUnits="userSpaceOnUse">
<stop stop-color="#FF761C"/>
<stop offset="0.98" stop-color="#FFF9F5"/>
</linearGradient>
</defs>
</svg>
