<svg width="152" height="32" viewBox="0 0 152 32" fill="none" xmlns="http://www.w3.org/2000/svg">
<g clip-path="url(#clip0_83_157)">
<path d="M87.7079 19.925C87.4512 19.6683 87.3223 19.3018 87.3223 18.8257V0.328125H88.8925V18.8832H99.7402V20.3106H88.7785C88.3216 20.3106 87.9647 20.1818 87.7079 19.925Z" fill="white"/>
<path d="M114.161 14.4868H105.169L102.971 20.3106H101.344L108.965 0.328125H109.708C110.165 0.328125 110.507 0.623188 110.736 1.21332L117.958 20.3106H116.331L114.161 14.4868ZM105.654 13.1455H113.676L109.679 2.44056H109.65L105.654 13.1455Z" fill="white"/>
<path d="M120.561 19.9102C120.294 19.6439 120.161 19.2923 120.161 18.8545V0.328125H128.468C130.048 0.328125 131.318 0.718061 132.279 1.4988C133.24 2.27954 133.72 3.30749 133.72 4.58174V6.20851C133.72 6.98925 133.549 7.70731 133.207 8.3636C132.864 9.01987 132.408 9.52991 131.837 9.89114V9.91986C132.788 10.1479 133.55 10.6197 134.121 11.3325C134.692 12.0462 134.977 12.8792 134.977 13.8305V15.372C134.977 16.856 134.491 18.0511 133.521 18.9545C132.55 19.8589 131.256 20.3106 129.639 20.3106H121.617C121.18 20.3106 120.827 20.1775 120.562 19.9111L120.561 19.9102ZM129.039 9.54819C129.971 9.54819 130.723 9.24444 131.294 8.63428C131.865 8.02589 132.151 7.21642 132.151 6.20764V4.58087C132.151 3.74355 131.813 3.05855 131.138 2.52587C130.462 1.99319 129.572 1.72685 128.468 1.72685H121.731V9.54819H129.039ZM129.496 18.8832C130.676 18.8832 131.623 18.5646 132.336 17.9266C133.05 17.2895 133.407 16.4374 133.407 15.372V13.8305C133.407 12.9558 133.097 12.2464 132.479 11.7042C131.86 11.1619 131.047 10.8904 130.038 10.8904H121.731V18.8832H129.496Z" fill="white"/>
<path d="M138.748 19.0259C137.748 18.0171 137.249 16.6471 137.249 14.9151H138.79C138.79 16.2093 139.151 17.232 139.875 17.9841C140.598 18.7361 141.577 19.1112 142.815 19.1112H146.012C147.211 19.1112 148.177 18.8353 148.909 18.2835C149.641 17.7317 150.009 17.0092 150.009 16.1136V14.1726C150.009 13.4493 149.742 12.8305 149.21 12.3169C148.677 11.8034 147.935 11.47 146.983 11.3177L141.873 10.4613C140.503 10.2332 139.433 9.73796 138.661 8.97724C137.89 8.21651 137.506 7.2643 137.506 6.12235V4.46686C137.506 3.15344 138 2.09765 138.99 1.29863C139.979 0.499608 141.282 0.100098 142.9 0.100098H146.126C147.667 0.100098 148.909 0.566628 149.851 1.49882C150.793 2.43188 151.264 3.65914 151.264 5.18145H149.722C149.722 4.07779 149.394 3.18825 148.737 2.51196C148.081 1.83653 147.21 1.49882 146.125 1.49882H142.899C141.738 1.49882 140.81 1.77038 140.116 2.31264C139.421 2.85489 139.074 3.57384 139.074 4.46773V6.12322C139.074 6.88481 139.331 7.52194 139.845 8.03547C140.36 8.549 141.082 8.88237 142.015 9.03468L147.096 9.91987C148.505 10.1671 149.603 10.6623 150.393 11.4039C151.183 12.1463 151.578 13.0698 151.578 14.1726V16.1136C151.578 17.4462 151.073 18.5167 150.065 19.3253C149.057 20.1348 147.714 20.5387 146.041 20.5387H142.786C141.092 20.5387 139.746 20.0347 138.747 19.0259H138.748Z" fill="white"/>
<path d="M20.9625 1.08451C19.2714 0.360343 17.3452 0 15.1814 0H0V27.5462C0 28.8196 0.409955 29.8493 1.22812 30.637C2.04629 31.4264 3.1073 31.8198 4.40941 31.8198H15.365C19.3036 31.8198 22.2899 30.811 24.3196 28.7961C25.0012 28.1207 25.5678 27.3382 26.0204 26.4486L20.9625 1.08451ZM21.0914 19.6369C21.0914 21.819 20.5909 23.471 19.5917 24.5921C18.5907 25.7132 17.1206 26.2737 15.1814 26.2737H6.27292V5.54614H15.0003C16.8186 5.54614 18.2878 6.06838 19.4089 7.11372C20.53 8.15907 21.0905 9.5456 21.0905 11.2733L21.0914 19.6369Z" fill="white"/>
<path d="M82.9798 5.45388V0H64.3386L64.2385 0.500476L59.1606 25.761V31.8198H65.4327V19.4559H81.2973V14.0003H65.4327V5.45388H82.9798Z" fill="white"/>
<path d="M61.7465 0L59.1606 12.8679L56.0654 28.2738C55.8226 29.4854 55.3743 30.3811 54.7233 30.9564C54.0722 31.5317 53.1862 31.8207 52.0642 31.8207H49.4278L42.6553 10.0017H42.563L35.6539 31.8207H33.0174C31.9869 31.8207 31.1226 31.5631 30.4272 31.0469C29.7282 30.5325 29.2443 29.6082 28.9727 28.2738L27.3608 20.1914L23.921 2.93235L23.3369 0.000870393H29.7012L33.6102 22.5937H33.7007L40.2913 1.6816H42.5639C43.3212 1.6816 43.9809 1.87831 44.5414 2.2726C45.102 2.66688 45.5337 3.37974 45.8375 4.40854L51.3836 22.5458H51.4741L55.3831 0H61.7465Z" fill="white"/>
<path d="M102.431 23.7365C103.902 23.7365 105.215 24.1482 106.331 24.9594C107.165 25.5661 107.789 26.3216 108.339 26.9892C108.783 27.5262 109.242 28.0824 109.705 28.4183C109.994 28.6281 110.28 28.7674 110.737 28.7674C111.195 28.7674 111.482 28.6272 111.77 28.4175C112.233 28.0806 112.691 27.5253 113.135 26.9883C113.685 26.3216 114.31 25.5661 115.144 24.9585C116.261 24.1473 117.573 23.7356 119.044 23.7356C120.515 23.7356 121.827 24.1473 122.943 24.9585C123.778 25.5652 124.402 26.3207 124.952 26.9883C125.396 27.5253 125.854 28.0806 126.317 28.4175C126.606 28.6272 126.892 28.7674 127.35 28.7674C127.808 28.7674 128.094 28.6272 128.382 28.4175C128.846 28.0806 129.304 27.5253 129.748 26.9883C130.299 26.3216 130.923 25.5652 131.757 24.9594C132.873 24.1482 134.185 23.7365 135.656 23.7365C137.127 23.7365 138.439 24.1482 139.555 24.9594C140.39 25.5661 141.014 26.3216 141.564 26.9892C142.007 27.5262 142.466 28.0815 142.93 28.4183C143.219 28.6281 143.505 28.7682 143.963 28.7682C144.421 28.7682 144.707 28.6281 144.996 28.4183C145.46 28.0815 145.918 27.5262 146.362 26.9892C146.913 26.3224 147.537 25.5661 148.371 24.9594C149.222 24.3414 150.186 23.955 151.248 23.8061V27.2128C151.248 27.2128 151.241 27.2181 151.238 27.2207C150.774 27.5575 150.316 28.1128 149.872 28.6499C149.321 29.3166 148.697 30.073 147.863 30.6796C146.746 31.4908 145.435 31.9025 143.964 31.9025C142.493 31.9025 141.18 31.4908 140.064 30.6796C139.23 30.073 138.607 29.3175 138.056 28.6507C137.612 28.1128 137.153 27.5575 136.69 27.2207C136.402 27.0109 136.115 26.8708 135.658 26.8708C135.2 26.8708 134.913 27.0109 134.625 27.2207C134.162 27.5575 133.704 28.1128 133.261 28.6499C132.71 29.3175 132.086 30.073 131.251 30.6796C130.134 31.4908 128.822 31.9025 127.351 31.9025C125.881 31.9025 124.569 31.4908 123.452 30.6796C122.617 30.073 121.993 29.3175 121.443 28.6499C121 28.1128 120.542 27.5575 120.078 27.2207C119.789 27.0109 119.503 26.8708 119.045 26.8708C118.587 26.8708 118.301 27.0109 118.013 27.2207C117.549 27.5575 117.091 28.1128 116.647 28.6499C116.096 29.3166 115.472 30.073 114.639 30.6787C113.522 31.49 112.21 31.9017 110.739 31.9017C109.268 31.9017 107.957 31.49 106.84 30.6787C106.005 30.0721 105.381 29.3166 104.831 28.649C104.388 28.112 103.929 27.5567 103.465 27.2198C103.176 27.01 102.891 26.8699 102.433 26.8699C101.975 26.8699 101.689 27.01 101.401 27.2198C100.938 27.5567 100.48 28.1111 100.036 28.6481C99.4839 29.3166 98.8598 30.0721 98.026 30.6787C96.9093 31.49 95.5976 31.9017 94.1267 31.9017C92.6557 31.9017 91.344 31.49 90.2273 30.6787C89.3926 30.0721 88.7685 29.3166 88.2184 28.6499C87.7745 28.1128 87.3167 27.5575 86.8528 27.2207C86.8493 27.2181 86.8458 27.2155 86.8423 27.2128V23.8061C87.9042 23.955 88.8686 24.3405 89.7199 24.9594C90.5546 25.5661 91.1786 26.3216 91.7287 26.9892C92.1717 27.5262 92.6304 28.0815 93.0944 28.4183C93.3833 28.6281 93.6688 28.7674 94.1267 28.7674C94.5845 28.7674 94.8708 28.6272 95.1589 28.4183C95.622 28.0815 96.0807 27.5262 96.5237 26.9892C97.0747 26.3216 97.6987 25.5661 98.5334 24.9594C99.6502 24.1482 100.962 23.7365 102.433 23.7365H102.431Z" fill="white"/>
</g>
<defs>
<clipPath id="clip0_83_157">
<rect width="152" height="32" fill="white"/>
</clipPath>
</defs>
</svg>
