<svg width="42" height="43" viewBox="0 0 42 43" fill="none" xmlns="http://www.w3.org/2000/svg">
<rect y="0.377441" width="42" height="42.2449" rx="8" fill="#E1E1E1"/>
<path d="M34 17.9489V29.2273C34 29.8523 33.7727 30.3873 33.3181 30.8324C32.8635 31.2775 32.317 31.5 31.6786 31.5H10.3214C9.68304 31.5 9.13653 31.2775 8.68192 30.8324C8.22731 30.3873 8 29.8523 8 29.2273V17.9489C8.4256 18.4129 8.91406 18.8248 9.4654 19.1847C12.9669 21.5142 15.3705 23.1477 16.6763 24.0852C17.2277 24.4829 17.675 24.7931 18.0184 25.0156C18.3618 25.2382 18.8188 25.4654 19.3895 25.6974C19.9602 25.9294 20.4922 26.0455 20.9855 26.0455H21.0145C21.5078 26.0455 22.0398 25.9294 22.6105 25.6974C23.1812 25.4654 23.6382 25.2382 23.9816 25.0156C24.325 24.7931 24.7723 24.4829 25.3237 24.0852C26.968 22.9204 29.3765 21.2869 32.5491 19.1847C33.1004 18.8153 33.5841 18.4034 34 17.9489ZM34 13.7727C34 14.5208 33.763 15.2358 33.2891 15.9176C32.8151 16.5994 32.2251 17.1818 31.519 17.6648C27.8821 20.1364 25.6187 21.6752 24.7288 22.2813C24.632 22.3476 24.4265 22.492 24.1122 22.7145C23.7978 22.937 23.5366 23.117 23.3287 23.2543C23.1207 23.3916 22.8692 23.5455 22.5742 23.7159C22.2792 23.8864 22.0011 24.0142 21.74 24.0994C21.4788 24.1847 21.237 24.2273 21.0145 24.2273H20.9855C20.763 24.2273 20.5212 24.1847 20.26 24.0994C19.9989 24.0142 19.7208 23.8863 19.4258 23.7159C19.1308 23.5455 18.8793 23.3916 18.6713 23.2543C18.4634 23.1169 18.2022 22.937 17.8878 22.7145C17.5735 22.4919 17.3679 22.3475 17.2712 22.2813C16.391 21.6752 15.1239 20.8111 13.4699 19.6889C11.8158 18.5668 10.8244 17.892 10.4955 17.6648C9.89584 17.267 9.32999 16.7202 8.79799 16.0241C8.266 15.3281 8 14.6818 8 14.0852C8 13.3466 8.20071 12.7311 8.60212 12.2386C9.00354 11.7462 9.57664 11.5 10.3214 11.5H31.6786C32.3073 11.5 32.8514 11.7225 33.3108 12.1676C33.7703 12.6127 34 13.1477 34 13.7727Z" fill="black"/>
</svg>
