<svg width="42" height="43" viewBox="0 0 42 43" fill="none" xmlns="http://www.w3.org/2000/svg">
<rect y="0.5" width="42" height="42" rx="8" fill="#E1E1E1"/>
<path d="M32 21.7573C32 28.0335 27.6316 32.5 21.1803 32.5C14.9951 32.5 10 27.5855 10 21.5C10 15.4145 14.9951 10.5 21.1803 10.5C24.1918 10.5 26.7254 11.5867 28.6775 13.3786L25.6344 16.2573C21.6537 12.4782 14.2512 15.3169 14.2512 21.5C14.2512 25.3367 17.3664 28.446 21.1803 28.446C25.6074 28.446 27.2664 25.3234 27.5279 23.7044H21.1803V19.921H31.8242C31.9279 20.4843 32 21.0254 32 21.7573Z" fill="black"/>
</svg>
