<svg width="34" height="49" viewBox="0 0 34 49" fill="none" xmlns="http://www.w3.org/2000/svg">
<path d="M26.1488 0L16.1932 12.8068H24.53L23.8825 18.1364L34 5.25H25.5822L26.1488 0Z" fill="black"/>
<path d="M12.9556 30.8636L3 43.6705H11.3368L10.6893 49L20.8068 36.1136H12.389L12.9556 30.8636Z" fill="black"/>
<path d="M16.9217 5.09088L16.1123 12.8863C14.0348 13.178 10.3494 14.7795 12.2272 18.8522C13.2555 21.0827 15.7754 20.8243 18.8202 20.5121C22.7251 20.1118 27.4934 19.6229 31.0862 24.1818C37.4804 32.2954 28.658 44.4659 20.2402 43.5909L21.0496 36.0341C22.7224 36.0606 25.8736 34.9204 25.0966 30.1477C24.6679 27.5141 21.7313 27.7172 18.1459 27.9651C13.6092 28.2788 8.03362 28.6643 5.18538 23.4659C0.0861646 14.1591 9.71804 3.89769 16.9217 5.09088Z" fill="black"/>
<path d="M23.1488 0L13.1932 12.8068H21.53L20.8825 18.1364L31 5.25H22.5822L23.1488 0Z" fill="#8902F4"/>
<path d="M9.95561 30.8636L0 43.6705H8.33681L7.6893 49L17.8068 36.1136H9.38903L9.95561 30.8636Z" fill="#8902F4"/>
<path d="M13.9217 5.09088L13.1123 12.8863C11.0348 13.178 7.34936 14.7795 9.22717 18.8522C10.2555 21.0827 12.7754 20.8243 15.8202 20.5121C19.7251 20.1118 24.4934 19.6229 28.0862 24.1818C34.4804 32.2954 25.658 44.4659 17.2402 43.5909L18.0496 36.0341C19.7224 36.0606 22.8736 34.9204 22.0966 30.1477C21.6679 27.5141 18.7313 27.7172 15.1459 27.9651C10.6092 28.2788 5.03362 28.6643 2.18538 23.4659C-2.91384 14.1591 6.71804 3.89769 13.9217 5.09088Z" fill="#8902F4"/>
</svg>
