<svg width="42" height="43" viewBox="0 0 42 43" fill="none" xmlns="http://www.w3.org/2000/svg">
<rect y="0.5" width="42" height="42" rx="8" fill="#E1E1E1"/>
<path d="M30.9851 26.4689C31.953 27.4814 32.6569 28.67 31.0291 30.651C29.4893 32.5 28.3455 32.5 26.9817 32.5C23.6381 32.5 18.7108 28.2738 16.2911 25.8086C13.9595 23.3873 10 18.3247 10 14.7589C10 13.4382 10.5719 12.1615 12.0677 11.193C13.6075 10.1805 15.0593 10.2245 16.2472 11.6773C17.215 12.8659 19.8107 15.7274 18.1829 17.9285C17.083 19.3812 17.215 19.3372 18.2709 20.5258C19.3707 21.7585 20.5146 22.9471 22.1863 24.4438C23.1102 25.1482 22.9342 25.2803 24.606 24.1357C26.5417 22.815 30.0173 25.5884 30.9851 26.4689Z" fill="black"/>
</svg>
