<svg width="102" height="32" viewBox="0 0 102 32" fill="none" xmlns="http://www.w3.org/2000/svg">
<path d="M48.7627 15.3289C48.1535 15.036 47.3754 14.8876 46.4519 14.8876H43.824C43.1239 14.8876 42.564 14.694 42.1639 14.3211L42.1444 14.3018C41.7535 13.8928 41.5651 13.4321 41.5651 12.894C41.5651 12.356 41.7599 11.8592 42.1444 11.4566C42.5315 11.0476 43.0629 10.8411 43.7175 10.8411H50.1839V9.44629H43.4772C42.7485 9.44629 42.1224 9.614 41.5625 9.95595C41.0027 10.2811 40.5792 10.7005 40.27 11.2346C39.9609 11.7701 39.8076 12.3366 39.8076 12.9715C39.8076 13.716 39.9674 14.347 40.2856 14.8502C40.6273 15.3625 41.0806 15.7457 41.6691 16.0257C42.2808 16.2838 43.007 16.4154 43.824 16.4154H46.5882C47.0533 16.4154 47.4677 16.5211 47.8184 16.7315C48.1769 16.9211 48.4432 17.1921 48.6198 17.5366C48.7926 17.8592 48.8732 18.187 48.8732 18.5715C48.8732 18.956 48.7783 19.3419 48.59 19.6928C48.4016 20.0476 48.112 20.3431 47.734 20.5754C47.3793 20.7844 46.9455 20.8876 46.4545 20.8876H40.2324V22.2799H46.7506C47.5313 22.2799 48.1899 22.1057 48.7653 21.7483C49.3642 21.387 49.8136 20.9367 50.1423 20.3625C50.4748 19.7728 50.6332 19.1612 50.6332 18.4902C50.6332 17.7109 50.467 17.0438 50.1448 16.5147C49.8422 15.9934 49.3888 15.6025 48.764 15.3263L48.7601 15.3289H48.7627Z" fill="#F9F4F0"/>
<path d="M64.2024 10.0313C63.1934 9.43126 62.0083 9.12549 60.6835 9.12549C59.3587 9.12549 58.1765 9.43126 57.1606 10.0338C56.1475 10.6171 55.3344 11.4326 54.742 12.4571C54.1497 13.4597 53.8496 14.6068 53.8496 15.8636C53.8496 17.1204 54.1497 18.2804 54.742 19.2984C55.3344 20.3036 56.1488 21.1191 57.1606 21.7217C58.127 22.283 59.2574 22.5785 60.5149 22.6017H60.6835C62.0083 22.6043 63.1905 22.3114 64.2024 21.7256C65.235 21.123 66.0484 20.3075 66.6248 19.3062C67.2173 18.2842 67.5176 17.1281 67.5176 15.8687C67.5176 14.6094 67.2173 13.4326 66.6248 12.43C66.0484 11.4274 65.235 10.6222 64.2024 10.0365V10.0326V10.0313ZM65.7303 15.8674C65.7303 16.8597 65.5186 17.772 65.0986 18.581C64.6793 19.3772 64.0867 20.0184 63.3412 20.492C62.598 20.963 61.677 21.2107 60.6812 21.2107C59.6848 21.2107 58.792 20.9694 58.0206 20.492C57.2751 20.0184 56.6827 19.3746 56.2592 18.5784C55.8423 17.7733 55.6279 16.861 55.6279 15.8687C55.6279 14.8765 55.8397 13.9746 56.2592 13.1848C56.6788 12.3693 57.2751 11.7152 58.0246 11.2416C58.792 10.7642 59.6883 10.5268 60.6812 10.5268C61.6735 10.5268 62.5853 10.7681 63.3412 11.2455C64.0908 11.7229 64.6833 12.3732 65.1027 13.1823C65.5197 13.9746 65.7337 14.8765 65.7337 15.8701H65.7303V15.8674Z" fill="#F9F4F0"/>
<path d="M80.5505 9.85454C79.6583 9.37454 78.6073 9.12939 77.4217 9.12939C76.2355 9.12939 75.1977 9.37454 74.2859 9.861C73.3713 10.3281 72.6712 10.9733 72.1465 11.8236C71.6449 12.6675 71.3906 13.6701 71.3906 14.8043V22.2856H73.1492V14.8301C73.1492 13.9539 73.3482 13.1836 73.7388 12.5449C74.1427 11.8946 74.6765 11.3888 75.3248 11.0365C75.9824 10.692 76.6865 10.5178 77.4217 10.5178C78.1569 10.5178 78.8541 10.692 79.492 11.0365C80.153 11.3849 80.6874 11.8907 81.0809 12.5475C81.4876 13.1849 81.6924 13.9488 81.6924 14.8249V22.2805H83.4539V14.7991C83.4539 13.6688 83.1904 12.6623 82.6721 11.8184C82.1641 10.9643 81.4704 10.3229 80.5523 9.8494L80.5494 9.85329L80.5505 9.85454Z" fill="#F9F4F0"/>
<path d="M89.8651 9.44531H88.0801V22.2828H89.8651V9.44531Z" fill="#F9F4F0"/>
<path d="M98.017 11.5266C98.8016 11.0724 99.6899 10.8402 100.664 10.8402H102V9.44531H100.746C99.4016 9.44531 98.1832 9.73566 97.1351 10.3059C96.087 10.8737 95.2465 11.6557 94.6345 12.626C94.0293 13.5731 93.7227 14.6622 93.7227 15.8647C93.7227 17.0673 94.0293 18.1615 94.6345 19.1293C95.2437 20.0828 96.087 20.8532 97.1351 21.4235C98.0532 21.919 99.8509 22.2842 100.655 22.2842H102V20.8893H100.664C99.6939 20.8893 98.8016 20.6673 98.0147 20.2287C97.2519 19.7744 96.6312 19.1589 96.171 18.4015C95.732 17.6415 95.5077 16.7873 95.5077 15.8622C95.5077 14.937 95.732 14.0802 96.175 13.3202C96.6312 12.5667 97.253 11.9602 98.0181 11.5253V11.5292L98.017 11.5266Z" fill="#F9F4F0"/>
<path d="M19.9897 19.8816C13.7146 21.696 8.52362 24.3425 5.27431 27.4433L5.13086 27.5809C5.99489 28.3681 6.94234 29.0721 7.96648 29.6705L8.18669 29.4113C9.07409 28.3681 10.0249 27.3601 11.0157 26.4097C13.6745 23.8593 16.717 21.6512 19.993 19.8784L19.9897 19.8816Z" fill="url(#paint0_radial_63_1856)"/>
<path d="M19.9897 19.8816C13.7146 21.696 8.52362 24.3425 5.27431 27.4433L5.13086 27.5809C5.99489 28.3681 6.94234 29.0721 7.96648 29.6705L8.18669 29.4113C9.07409 28.3681 10.0249 27.3601 11.0157 26.4097C13.6745 23.8593 16.717 21.6512 19.993 19.8784L19.9897 19.8816Z" fill="#F9F4F0"/>
<path d="M0 17.1938C0.250203 20.4291 1.49789 23.3955 3.45616 25.8083L3.54623 25.7219C5.55786 23.8115 8.17668 22.0739 11.3359 20.5603C14.1049 19.2323 17.2841 18.0931 20.7103 17.1938H0Z" fill="url(#paint1_radial_63_1856)"/>
<path d="M0 17.1938C0.250203 20.4291 1.49789 23.3955 3.45616 25.8083L3.54623 25.7219C5.55786 23.8115 8.17668 22.0739 11.3359 20.5603C14.1049 19.2323 17.2841 18.0931 20.7103 17.1938H0Z" fill="#F9F4F0"/>
<path d="M12.7708 3.89763C18.3853 9.28326 25.4511 12.8449 33.2008 14.1953C32.2667 6.21123 25.2076 0 16.6306 0C14.3654 0 12.2069 0.435203 10.2354 1.21921C11.036 2.14722 11.89 3.04962 12.7708 3.89763Z" fill="url(#paint2_radial_63_1856)"/>
<path d="M12.7708 3.89763C18.3853 9.28326 25.4511 12.8449 33.2008 14.1953C32.2667 6.21123 25.2076 0 16.6306 0C14.3654 0 12.2069 0.435203 10.2354 1.21921C11.036 2.14722 11.89 3.04962 12.7708 3.89763Z" fill="#F9F4F0"/>
<path d="M5.27431 4.55705C8.52362 7.66111 13.7146 10.3043 19.9897 12.1219C16.7136 10.3459 13.6712 8.14111 11.0123 5.59069C10.0249 4.64345 9.07409 3.63544 8.18336 2.58904L7.9632 2.32983C6.93901 2.92824 5.99155 3.63224 5.13086 4.41945L5.27431 4.55705Z" fill="url(#paint3_radial_63_1856)"/>
<path d="M5.27431 4.55705C8.52362 7.66111 13.7146 10.3043 19.9897 12.1219C16.7136 10.3459 13.6712 8.14111 11.0123 5.59069C10.0249 4.64345 9.07409 3.63544 8.18336 2.58904L7.9632 2.32983C6.93901 2.92824 5.99155 3.63224 5.13086 4.41945L5.27431 4.55705Z" fill="#F9F4F0"/>
<path d="M12.7708 28.1024C11.8867 28.9504 11.0327 29.8528 10.2354 30.7808C12.2036 31.5648 14.3654 32 16.6306 32C25.2076 32 32.2667 25.7888 33.2041 17.8015C25.4544 19.1519 18.3887 22.7136 12.7741 28.0992L12.7708 28.1024Z" fill="url(#paint4_radial_63_1856)"/>
<path d="M12.7708 28.1024C11.8867 28.9504 11.0327 29.8528 10.2354 30.7808C12.2036 31.5648 14.3654 32 16.6306 32C25.2076 32 32.2667 25.7888 33.2041 17.8015C25.4544 19.1519 18.3887 22.7136 12.7741 28.0992L12.7708 28.1024Z" fill="#F9F4F0"/>
<path d="M11.3359 11.4399C8.17668 9.92632 5.55786 8.18871 3.54623 6.2783L3.45616 6.19189C1.49789 8.60471 0.250203 11.5711 0 14.8064H20.7069C17.2808 13.9072 14.1049 12.7679 11.3326 11.4367L11.3359 11.4399Z" fill="url(#paint5_radial_63_1856)"/>
<path d="M11.3359 11.4399C8.17668 9.92632 5.55786 8.18871 3.54623 6.2783L3.45616 6.19189C1.49789 8.60471 0.250203 11.5711 0 14.8064H20.7069C17.2808 13.9072 14.1049 12.7679 11.3326 11.4367L11.3359 11.4399Z" fill="#F9F4F0"/>
<defs>
<radialGradient id="paint0_radial_63_1856" cx="0" cy="0" r="1" gradientUnits="userSpaceOnUse" gradientTransform="translate(16.6019 15.9999) rotate(90) scale(16.0001 16.6019)">
<stop stop-color="#1C294B"/>
<stop offset="0.317213" stop-color="#FF4433"/>
<stop offset="0.597213" stop-color="#FE9A4C"/>
<stop offset="1" stop-color="#E0E0E0"/>
</radialGradient>
<radialGradient id="paint1_radial_63_1856" cx="0" cy="0" r="1" gradientUnits="userSpaceOnUse" gradientTransform="translate(16.6019 16.0002) rotate(90) scale(16.0001 16.6019)">
<stop stop-color="#1C294B"/>
<stop offset="0.317213" stop-color="#FF4433"/>
<stop offset="0.597213" stop-color="#FE9A4C"/>
<stop offset="1" stop-color="#E0E0E0"/>
</radialGradient>
<radialGradient id="paint2_radial_63_1856" cx="0" cy="0" r="1" gradientUnits="userSpaceOnUse" gradientTransform="translate(16.6022 16.0001) rotate(90) scale(16.0001 16.6019)">
<stop stop-color="#1C294B"/>
<stop offset="0.317213" stop-color="#FF4433"/>
<stop offset="0.597213" stop-color="#FE9A4C"/>
<stop offset="1" stop-color="#E0E0E0"/>
</radialGradient>
<radialGradient id="paint3_radial_63_1856" cx="0" cy="0" r="1" gradientUnits="userSpaceOnUse" gradientTransform="translate(16.6019 16.0003) rotate(90) scale(16.0001 16.6019)">
<stop stop-color="#1C294B"/>
<stop offset="0.317213" stop-color="#FF4433"/>
<stop offset="0.597213" stop-color="#FE9A4C"/>
<stop offset="1" stop-color="#E0E0E0"/>
</radialGradient>
<radialGradient id="paint4_radial_63_1856" cx="0" cy="0" r="1" gradientUnits="userSpaceOnUse" gradientTransform="translate(16.6022 15.9999) rotate(90) scale(16.0001 16.6019)">
<stop stop-color="#1C294B"/>
<stop offset="0.317213" stop-color="#FF4433"/>
<stop offset="0.597213" stop-color="#FE9A4C"/>
<stop offset="1" stop-color="#E0E0E0"/>
</radialGradient>
<radialGradient id="paint5_radial_63_1856" cx="0" cy="0" r="1" gradientUnits="userSpaceOnUse" gradientTransform="translate(16.6019 16) rotate(90) scale(16.0001 16.6019)">
<stop stop-color="#1C294B"/>
<stop offset="0.317213" stop-color="#FF4433"/>
<stop offset="0.597213" stop-color="#FE9A4C"/>
<stop offset="1" stop-color="#E0E0E0"/>
</radialGradient>
</defs>
</svg>
