<svg width="584" height="184" viewBox="0 0 200 200" fill="none" xmlns="http://www.w3.org/2000/svg">
<g transform="scale(4)">  
<!-- <path d="M69.629 22.0343C68.7591 21.6133 67.648 21.3999 66.3293 21.3999H62.5769C61.5772 21.3999 60.7778 21.1217 60.2065 20.5857L60.1786 20.5579C59.6204 19.9699 59.3514 19.3077 59.3514 18.5342C59.3514 17.7608 59.6296 17.0467 60.1786 16.4679C60.7313 15.8799 61.49 15.5832 62.4248 15.5832H71.6582V13.5781H62.0817C61.0411 13.5781 60.1471 13.8192 59.3477 14.3108C58.5482 14.7782 57.9436 15.381 57.5021 16.1489C57.0606 16.9186 56.8418 17.7329 56.8418 18.6455C56.8418 19.7158 57.0699 20.6228 57.5243 21.3461C58.0122 22.0825 58.6595 22.6334 59.4998 23.0359C60.3734 23.4069 61.4103 23.5961 62.5769 23.5961H66.524C67.188 23.5961 67.7798 23.7482 68.2805 24.0505C68.7925 24.3232 69.1728 24.7127 69.4249 25.2079C69.6717 25.6716 69.7867 26.1428 69.7867 26.6955C69.7867 27.2483 69.6512 27.8029 69.3823 28.3074C69.1134 28.8174 68.6998 29.2422 68.16 29.5761C67.6536 29.8766 67.0341 30.0249 66.333 30.0249H57.4483V32.0264H66.7559C67.8706 32.0264 68.811 31.7759 69.6327 31.2622C70.4878 30.7428 71.1296 30.0954 71.5989 29.27C72.0736 28.4224 72.2999 27.5432 72.2999 26.5786C72.2999 25.4584 72.0626 24.4994 71.6026 23.7389C71.1704 22.9896 70.523 22.4275 69.6309 22.0306L69.6253 22.0343H69.629Z" fill="black"/>
<path d="M91.6755 14.4192C90.2347 13.5567 88.5426 13.1172 86.6508 13.1172C84.7591 13.1172 83.071 13.5567 81.6204 14.4229C80.1738 15.2614 79.0127 16.4336 78.1669 17.9064C77.321 19.3476 76.8926 20.9965 76.8926 22.8031C76.8926 24.6097 77.321 26.2772 78.1669 27.7407C79.0127 29.1857 80.1757 30.3579 81.6204 31.2241C83.0004 32.0309 84.6145 32.4557 86.4101 32.4891H86.6508C88.5426 32.4928 90.2306 32.0717 91.6755 31.2297C93.15 30.3634 94.3115 29.1912 95.1345 27.7518C95.9806 26.2828 96.4094 24.6209 96.4094 22.8105C96.4094 21.0002 95.9806 19.3086 95.1345 17.8674C94.3115 16.4262 93.15 15.2688 91.6755 14.4267V14.4211V14.4192ZM93.8572 22.8087C93.8572 24.2351 93.5549 25.5464 92.9553 26.7095C92.3565 27.8539 91.5104 28.7757 90.4458 29.4564C89.3845 30.1334 88.0694 30.4896 86.6475 30.4896C85.2248 30.4896 83.95 30.1427 82.8484 29.4564C81.7839 28.7757 80.938 27.8502 80.3333 26.7057C79.7379 25.5483 79.4319 24.237 79.4319 22.8105C79.4319 21.3842 79.7342 20.0877 80.3333 18.9525C80.9324 17.7802 81.7839 16.8398 82.8542 16.1591C83.95 15.4728 85.2298 15.1315 86.6475 15.1315C88.0645 15.1315 89.3665 15.4784 90.4458 16.1647C91.5162 16.8509 92.3622 17.7858 92.961 18.9488C93.5566 20.0877 93.8622 21.3842 93.8622 22.8124H93.8572V22.8087Z" fill="black"/>
<path d="M115.019 14.1654C113.745 13.4754 112.244 13.123 110.551 13.123C108.858 13.123 107.376 13.4754 106.074 14.1747C104.768 14.8462 103.768 15.7736 103.019 16.9959C102.303 18.209 101.939 19.6502 101.939 21.2807V32.035H104.451V21.3177C104.451 20.0583 104.735 18.9509 105.293 18.0328C105.869 17.0979 106.631 16.3709 107.557 15.8645C108.496 15.3692 109.502 15.1189 110.551 15.1189C111.601 15.1189 112.597 15.3692 113.508 15.8645C114.451 16.3653 115.215 17.0924 115.776 18.0365C116.357 18.9528 116.65 20.0509 116.65 21.3103V32.0276H119.165V21.2732C119.165 19.6484 118.789 18.2016 118.048 16.9885C117.323 15.7607 116.333 14.8388 115.022 14.158L115.017 14.1636L115.019 14.1654Z" fill="black"/>
<path d="M128.32 13.5762H125.771V32.03H128.32V13.5762Z" fill="black"/> -->
<!-- <path d="M139.96 16.5681C141.081 15.9151 142.349 15.5813 143.74 15.5813H145.647V13.5762H143.857C141.937 13.5762 140.197 13.9935 138.701 14.8133C137.204 15.6295 136.004 16.7535 135.13 18.1483C134.266 19.5098 133.828 21.0753 133.828 22.804C133.828 24.5327 134.266 26.1056 135.13 27.4968C136 28.8675 137.204 29.9749 138.701 30.7946C140.012 31.5069 142.579 32.0319 143.727 32.0319H145.647V30.0268H143.74C142.355 30.0268 141.081 29.7077 139.957 29.0771C138.868 28.4242 137.981 27.5394 137.324 26.4506C136.697 25.3581 136.377 24.1302 136.377 22.8003C136.377 21.4704 136.697 20.2388 137.33 19.1463C137.981 18.0631 138.869 17.1913 139.962 16.5662V16.5718L139.96 16.5681Z" fill="black"/> -->
<path d="M28.5434 28.5788C19.583 31.187 12.1708 34.9912 7.53101 39.4486L7.32617 39.6464C8.55993 40.778 9.91283 41.79 11.3752 42.6502L11.6897 42.2776C12.9568 40.778 14.3145 39.329 15.7292 37.9628C19.5258 34.2966 23.8702 31.1226 28.5482 28.5742L28.5434 28.5788Z" fill="url(#paint0_radial_71_885)"/>
<path d="M28.5434 28.5788C19.583 31.187 12.1708 34.9912 7.53101 39.4486L7.32617 39.6464C8.55993 40.778 9.91283 41.79 11.3752 42.6502L11.6897 42.2776C12.9568 40.778 14.3145 39.329 15.7292 37.9628C19.5258 34.2966 23.8702 31.1226 28.5482 28.5742L28.5434 28.5788Z" fill="black"/>
<path d="M0 24.7168C0.357271 29.3674 2.13887 33.6316 4.93512 37.1L5.06374 36.9758C7.93619 34.2296 11.6757 31.7318 16.1868 29.556C20.1406 27.647 24.6804 26.0094 29.5726 24.7168H0Z" fill="url(#paint1_radial_71_885)"/>
<path d="M0 24.7168C0.357271 29.3674 2.13887 33.6316 4.93512 37.1L5.06374 36.9758C7.93619 34.2296 11.6757 31.7318 16.1868 29.556C20.1406 27.647 24.6804 26.0094 29.5726 24.7168H0Z" fill="black"/>
<path d="M18.2356 5.6028C26.2527 13.3446 36.3421 18.4644 47.4081 20.4056C46.0742 8.92858 35.9944 0 23.7471 0C20.5126 0 17.4305 0.6256 14.6152 1.7526C15.7585 3.0866 16.978 4.3838 18.2356 5.6028Z" fill="url(#paint2_radial_71_885)"/>
<path d="M18.2356 5.6028C26.2527 13.3446 36.3421 18.4644 47.4081 20.4056C46.0742 8.92858 35.9944 0 23.7471 0C20.5126 0 17.4305 0.6256 14.6152 1.7526C15.7585 3.0866 16.978 4.3838 18.2356 5.6028Z" fill="black"/>
<path d="M7.53101 6.55121C12.1708 11.0133 19.583 14.8129 28.5434 17.4257C23.8655 14.8727 19.5211 11.7033 15.7244 8.03705C14.3145 6.67541 12.9568 5.22641 11.6849 3.72221L11.3705 3.34961C9.90806 4.20981 8.55517 5.22181 7.32617 6.35341L7.53101 6.55121Z" fill="url(#paint3_radial_71_885)"/>
<path d="M7.53101 6.55121C12.1708 11.0133 19.583 14.8129 28.5434 17.4257C23.8655 14.8727 19.5211 11.7033 15.7244 8.03705C14.3145 6.67541 12.9568 5.22641 11.6849 3.72221L11.3705 3.34961C9.90806 4.20981 8.55517 5.22181 7.32617 6.35341L7.53101 6.55121Z" fill="black"/>
<path d="M18.2356 40.3973C16.9732 41.6163 15.7537 42.9135 14.6152 44.2475C17.4258 45.3745 20.5126 46.0001 23.7471 46.0001C35.9944 46.0001 46.0742 37.0715 47.4128 25.5898C36.3469 27.531 26.2575 32.6508 18.2404 40.3927L18.2356 40.3973Z" fill="url(#paint4_radial_71_885)"/>
<path d="M18.2356 40.3973C16.9732 41.6163 15.7537 42.9135 14.6152 44.2475C17.4258 45.3745 20.5126 46.0001 23.7471 46.0001C35.9944 46.0001 46.0742 37.0715 47.4128 25.5898C36.3469 27.531 26.2575 32.6508 18.2404 40.3927L18.2356 40.3973Z" fill="black"/>
<path d="M16.1868 16.4444C11.6757 14.2686 7.93619 11.7708 5.06374 9.02459L4.93512 8.90039C2.13887 12.3688 0.357271 16.633 0 21.2836H29.5679C24.6756 19.991 20.1406 18.3534 16.182 16.4398L16.1868 16.4444Z" fill="url(#paint5_radial_71_885)"/>
<path d="M16.1868 16.4444C11.6757 14.2686 7.93619 11.7708 5.06374 9.02459L4.93512 8.90039C2.13887 12.3688 0.357271 16.633 0 21.2836H29.5679C24.6756 19.991 20.1406 18.3534 16.182 16.4398L16.1868 16.4444Z" fill="black"/>
<defs>
<radialGradient id="paint0_radial_71_885" cx="0" cy="0" r="1" gradientUnits="userSpaceOnUse" gradientTransform="translate(23.7059 22.9989) rotate(90) scale(23 23.7062)">
<stop stop-color="#1C294B"/>
<stop offset="0.317213" stop-color="#FF4433"/>
<stop offset="0.597213" stop-color="#FE9A4C"/>
<stop offset="1" stop-color="#E0E0E0"/>
</radialGradient>
<radialGradient id="paint1_radial_71_885" cx="0" cy="0" r="1" gradientUnits="userSpaceOnUse" gradientTransform="translate(23.7062 23.001) rotate(90) scale(23 23.7062)">
<stop stop-color="#1C294B"/>
<stop offset="0.317213" stop-color="#FF4433"/>
<stop offset="0.597213" stop-color="#FE9A4C"/>
<stop offset="1" stop-color="#E0E0E0"/>
</radialGradient>
<radialGradient id="paint2_radial_71_885" cx="0" cy="0" r="1" gradientUnits="userSpaceOnUse" gradientTransform="translate(23.7066 23) rotate(90) scale(23 23.7062)">
<stop stop-color="#1C294B"/>
<stop offset="0.317213" stop-color="#FF4433"/>
<stop offset="0.597213" stop-color="#FE9A4C"/>
<stop offset="1" stop-color="#E0E0E0"/>
</radialGradient>
<radialGradient id="paint3_radial_71_885" cx="0" cy="0" r="1" gradientUnits="userSpaceOnUse" gradientTransform="translate(23.7059 23.0008) rotate(90) scale(23 23.7062)">
<stop stop-color="#1C294B"/>
<stop offset="0.317213" stop-color="#FF4433"/>
<stop offset="0.597213" stop-color="#FE9A4C"/>
<stop offset="1" stop-color="#E0E0E0"/>
</radialGradient>
<radialGradient id="paint4_radial_71_885" cx="0" cy="0" r="1" gradientUnits="userSpaceOnUse" gradientTransform="translate(23.7066 23) rotate(90) scale(23 23.7062)">
<stop stop-color="#1C294B"/>
<stop offset="0.317213" stop-color="#FF4433"/>
<stop offset="0.597213" stop-color="#FE9A4C"/>
<stop offset="1" stop-color="#E0E0E0"/>
</radialGradient>
<radialGradient id="paint5_radial_71_885" cx="0" cy="0" r="1" gradientUnits="userSpaceOnUse" gradientTransform="translate(23.7062 22.9994) rotate(90) scale(23 23.7062)">
<stop stop-color="#1C294B"/>
<stop offset="0.317213" stop-color="#FF4433"/>
<stop offset="0.597213" stop-color="#FE9A4C"/>
<stop offset="1" stop-color="#E0E0E0"/>
</radialGradient>
</defs>
</g>
</svg>
