<svg width="137" height="140" viewBox="0 0 137 140" fill="none" xmlns="http://www.w3.org/2000/svg">
<path fill-rule="evenodd" clip-rule="evenodd" d="M13.3375 56.8728C5.15466 64.1517 1.03275e-06 74.7611 0 86.5744C-3.4741e-06 108.522 17.7918 126.314 39.7391 126.314C49.1617 126.314 57.8183 123.034 64.6298 117.554C63.5997 125.843 61.5274 136.401 58.4846 136.245C54.7368 136.053 54.3204 138.169 54.5806 139.251H81.3507C81.6853 138.409 81.3507 136.63 77.3352 136.245C73.7626 135.903 71.691 123.418 70.8847 115.164C77.8214 120.762 86.6463 124.113 96.2541 124.113C112.577 124.113 126.641 114.439 133.024 100.512L49.0054 20.943L13.2066 56.7419L13.3375 56.8728ZM57.7595 12.189L136.561 86.8176C136.64 85.7844 136.681 84.7403 136.681 83.6868C136.681 73.4117 132.847 64.0319 126.533 56.8996L126.69 56.7419L69.9485 0L57.7595 12.189Z" fill="#0F0F0F"/>
</svg>
