<svg width="29" height="27" viewBox="0 0 29 27" fill="none" xmlns="http://www.w3.org/2000/svg">
<path fill-rule="evenodd" clip-rule="evenodd" d="M2.73756 10.9032C1.05806 12.299 0 14.3338 0 16.5997C0 20.808 3.64968 24.2195 8.15178 24.2195C10.0892 24.2195 11.8687 23.5878 13.2674 22.5327C13.0565 24.1231 12.631 26.1538 12.0059 26.1238C11.2371 26.087 11.1517 26.4927 11.2051 26.7002H16.6965C16.7651 26.5388 16.6965 26.1976 15.8727 26.1238C15.1407 26.0583 14.7159 23.6695 14.5501 22.0869C15.9723 23.1579 17.7805 23.799 19.749 23.799C23.0981 23.799 25.9835 21.9433 27.2925 19.2718L10.0575 4.01465L2.71279 10.8801L2.73756 10.9032ZM11.8532 2.33609L28.0175 16.6454C28.0336 16.448 28.0418 16.2486 28.0418 16.0473C28.0418 14.0768 27.2553 12.278 25.9596 10.9104L25.992 10.8801L14.3524 0L11.8532 2.33609Z" fill="#EE1C25"/>
</svg>
