<svg width="213" height="31" viewBox="0 0 213 31" fill="none" xmlns="http://www.w3.org/2000/svg">
<path fill-rule="evenodd" clip-rule="evenodd" d="M10.4781 0.556702C10.2722 0.543859 10.0645 0.537341 9.85533 0.537341C4.41238 0.537341 0 4.94972 0 10.3927C0 12.8975 0.93449 15.1841 2.47386 16.9229L2.4354 16.9613L16.2681 30.794L28.9818 18.0804L10.4781 0.556702ZM31.0672 15.9003C32.4738 14.2186 33.3204 12.0525 33.3204 9.6887C33.3204 4.33832 28.983 0.000976562 23.6327 0.000976562C21.0794 0.000976562 18.7569 0.988707 17.0263 2.60291L31.0672 15.9003Z" fill="#EE1C25"/>
<path fill-rule="evenodd" clip-rule="evenodd" d="M64.9447 12.5566C63.1381 14.1637 62 16.5061 62 19.1143C62 23.9599 65.9282 27.888 70.7738 27.888C72.8542 27.888 74.7655 27.164 76.2694 25.954C76.042 27.7841 75.5845 30.1159 74.9126 30.0814C74.0851 30.0389 73.9932 30.5061 74.0506 30.745H79.9611C80.0349 30.5592 79.9611 30.1663 79.0745 30.0814C78.2857 30.0058 77.8283 27.2488 77.6503 25.4265C79.1818 26.6624 81.1302 27.4023 83.2514 27.4023C86.8552 27.4023 89.9602 25.2665 91.3696 22.1916L72.8196 4.62397L64.9158 12.5277L64.9447 12.5566ZM74.7523 2.69121L92.1506 19.1681C92.1681 18.94 92.177 18.7094 92.177 18.4768C92.177 16.2082 91.3306 14.1373 89.9365 12.5626L89.9713 12.5277L77.4435 0L74.7523 2.69121Z" fill="white"/>
<path fill-rule="evenodd" clip-rule="evenodd" d="M131.839 4.56739L121 15.4068L136.407 30.8137L147.246 19.9742L131.839 4.56739ZM149.237 17.9833L151.814 15.4068L136.407 0L133.83 2.57651L149.237 17.9833Z" fill="#EE1C25"/>
<path fill-rule="evenodd" clip-rule="evenodd" d="M196.863 15.5732C196.872 15.5732 196.88 15.5731 196.889 15.573C196.884 15.5782 196.88 15.5833 196.876 15.5885C196.871 15.5834 196.867 15.5783 196.863 15.5732ZM189.706 12.419C188.622 11.1245 187.981 9.52193 187.981 7.78681C187.981 3.48627 191.918 0 196.775 0C201.632 0 205.569 3.48627 205.569 7.78681C205.569 9.52204 204.928 11.1247 203.844 12.4193C203.882 12.4189 203.92 12.4186 203.958 12.4186C208.814 12.4186 212.751 15.9049 212.751 20.2055C212.751 24.506 208.814 27.9923 203.958 27.9923C201.208 27.9923 198.754 26.8751 197.141 25.1254C197.431 27.4618 198.103 30.1175 199.46 30.7442H194.627C195.161 30.3974 196.201 28.7848 196.721 25.0026C195.111 26.8226 192.607 27.9923 189.794 27.9923C184.937 27.9923 181 24.506 181 20.2055C181 15.9309 184.89 12.4608 189.706 12.419Z" fill="white"/>
</svg>
